G04 (created by PCBNEW (2013-dec-23)-stable) date Sun 06 Apr 2014 07:04:32 PM EDT*
%MOIN*%
G04 Gerber Fmt 3.4, Leading zero omitted, Abs format*
%FSLAX34Y34*%
G01*
G70*
G90*
G04 APERTURE LIST*
%ADD10C,0.00590551*%
%ADD11C,0.01*%
%ADD12C,0.005*%
%ADD13C,0.008*%
%ADD14C,0.0016*%
G04 APERTURE END LIST*
G54D10*
G54D11*
X136500Y-91400D02*
X136500Y-95400D01*
X137500Y-91400D02*
X137500Y-95400D01*
X137500Y-95400D02*
X136500Y-95400D01*
X136500Y-91400D02*
X137500Y-91400D01*
X141500Y-95400D02*
X141500Y-91400D01*
X140500Y-95400D02*
X140500Y-91400D01*
X140500Y-91400D02*
X141500Y-91400D01*
X141500Y-95400D02*
X140500Y-95400D01*
G54D12*
X139640Y-92380D02*
X139960Y-92380D01*
X139950Y-92820D02*
X139640Y-92820D01*
X139960Y-92920D02*
X139960Y-92280D01*
X139960Y-92280D02*
X139640Y-92280D01*
X139640Y-92280D02*
X139640Y-92920D01*
X139640Y-92920D02*
X139960Y-92920D01*
G54D10*
X138990Y-91865D02*
X137809Y-91865D01*
X137809Y-91865D02*
X137809Y-93834D01*
X137809Y-93834D02*
X138990Y-93834D01*
X138990Y-93834D02*
X138990Y-91865D01*
G54D13*
X138161Y-93104D02*
X137761Y-93104D01*
X137761Y-93257D01*
X137780Y-93295D01*
X137800Y-93314D01*
X137838Y-93333D01*
X137895Y-93333D01*
X137933Y-93314D01*
X137952Y-93295D01*
X137971Y-93257D01*
X137971Y-93104D01*
X137800Y-93485D02*
X137780Y-93504D01*
X137761Y-93542D01*
X137761Y-93638D01*
X137780Y-93676D01*
X137800Y-93695D01*
X137838Y-93714D01*
X137876Y-93714D01*
X137933Y-93695D01*
X138161Y-93466D01*
X138161Y-93714D01*
X140161Y-93104D02*
X139761Y-93104D01*
X139761Y-93257D01*
X139780Y-93295D01*
X139800Y-93314D01*
X139838Y-93333D01*
X139895Y-93333D01*
X139933Y-93314D01*
X139952Y-93295D01*
X139971Y-93257D01*
X139971Y-93104D01*
X140161Y-93714D02*
X140161Y-93485D01*
X140161Y-93600D02*
X139761Y-93600D01*
X139819Y-93561D01*
X139857Y-93523D01*
X139876Y-93485D01*
G54D14*
X140074Y-92586D02*
X140078Y-92583D01*
X140081Y-92571D01*
X140081Y-92564D01*
X140078Y-92552D01*
X140070Y-92545D01*
X140063Y-92541D01*
X140048Y-92537D01*
X140036Y-92537D01*
X140021Y-92541D01*
X140014Y-92545D01*
X140006Y-92552D01*
X140002Y-92564D01*
X140002Y-92571D01*
X140006Y-92583D01*
X140010Y-92586D01*
X140081Y-92662D02*
X140081Y-92616D01*
X140081Y-92639D02*
X140002Y-92639D01*
X140014Y-92631D01*
X140021Y-92624D01*
X140025Y-92616D01*
G54D10*
X138699Y-91316D02*
X138699Y-91635D01*
X138681Y-91672D01*
X138662Y-91691D01*
X138624Y-91710D01*
X138549Y-91710D01*
X138512Y-91691D01*
X138493Y-91672D01*
X138474Y-91635D01*
X138474Y-91316D01*
X138081Y-91710D02*
X138306Y-91710D01*
X138193Y-91710D02*
X138193Y-91316D01*
X138231Y-91372D01*
X138268Y-91410D01*
X138306Y-91428D01*
X139468Y-94387D02*
X139468Y-93993D01*
X139337Y-94274D01*
X139206Y-93993D01*
X139206Y-94387D01*
X139037Y-94368D02*
X138981Y-94387D01*
X138887Y-94387D01*
X138849Y-94368D01*
X138831Y-94349D01*
X138812Y-94312D01*
X138812Y-94274D01*
X138831Y-94237D01*
X138849Y-94218D01*
X138887Y-94199D01*
X138962Y-94181D01*
X138999Y-94162D01*
X139018Y-94143D01*
X139037Y-94106D01*
X139037Y-94068D01*
X139018Y-94031D01*
X138999Y-94012D01*
X138962Y-93993D01*
X138868Y-93993D01*
X138812Y-94012D01*
X138456Y-93993D02*
X138643Y-93993D01*
X138662Y-94181D01*
X138643Y-94162D01*
X138606Y-94143D01*
X138512Y-94143D01*
X138474Y-94162D01*
X138456Y-94181D01*
X138437Y-94218D01*
X138437Y-94312D01*
X138456Y-94349D01*
X138474Y-94368D01*
X138512Y-94387D01*
X138606Y-94387D01*
X138643Y-94368D01*
X138662Y-94349D01*
X138100Y-93993D02*
X138175Y-93993D01*
X138212Y-94012D01*
X138231Y-94031D01*
X138268Y-94087D01*
X138287Y-94162D01*
X138287Y-94312D01*
X138268Y-94349D01*
X138250Y-94368D01*
X138212Y-94387D01*
X138137Y-94387D01*
X138100Y-94368D01*
X138081Y-94349D01*
X138062Y-94312D01*
X138062Y-94218D01*
X138081Y-94181D01*
X138100Y-94162D01*
X138137Y-94143D01*
X138212Y-94143D01*
X138250Y-94162D01*
X138268Y-94181D01*
X138287Y-94218D01*
X137687Y-94387D02*
X137912Y-94387D01*
X137800Y-94387D02*
X137800Y-93993D01*
X137837Y-94049D01*
X137875Y-94087D01*
X137912Y-94106D01*
X137312Y-94387D02*
X137537Y-94387D01*
X137425Y-94387D02*
X137425Y-93993D01*
X137462Y-94049D01*
X137500Y-94087D01*
X137537Y-94106D01*
M02*
