G04 (created by PCBNEW (2013-dec-23)-stable) date Sun 06 Apr 2014 07:42:34 PM EDT*
%MOIN*%
G04 Gerber Fmt 3.4, Leading zero omitted, Abs format*
%FSLAX34Y34*%
G01*
G70*
G90*
G04 APERTURE LIST*
%ADD10C,0.00590551*%
%ADD11C,0.005*%
G04 APERTURE END LIST*
G54D10*
G54D11*
X138080Y-95078D02*
X137880Y-95078D01*
X137833Y-94992D02*
X137823Y-94973D01*
X137823Y-94945D01*
X137833Y-94926D01*
X137852Y-94916D01*
X137871Y-94916D01*
X137890Y-94926D01*
X137957Y-94992D01*
X137957Y-94916D01*
X138061Y-94716D02*
X138071Y-94726D01*
X138080Y-94754D01*
X138080Y-94773D01*
X138071Y-94802D01*
X138052Y-94821D01*
X138033Y-94830D01*
X137995Y-94840D01*
X137966Y-94840D01*
X137928Y-94830D01*
X137909Y-94821D01*
X137890Y-94802D01*
X137880Y-94773D01*
X137880Y-94754D01*
X137890Y-94726D01*
X137900Y-94716D01*
X138023Y-94488D02*
X138023Y-94392D01*
X138080Y-94507D02*
X137880Y-94440D01*
X138080Y-94373D01*
X138080Y-94221D02*
X137880Y-94221D01*
X138071Y-94221D02*
X138080Y-94240D01*
X138080Y-94278D01*
X138071Y-94297D01*
X138061Y-94307D01*
X138042Y-94316D01*
X137985Y-94316D01*
X137966Y-94307D01*
X137957Y-94297D01*
X137947Y-94278D01*
X137947Y-94240D01*
X137957Y-94221D01*
X138080Y-94040D02*
X137880Y-94040D01*
X138071Y-94040D02*
X138080Y-94059D01*
X138080Y-94097D01*
X138071Y-94116D01*
X138061Y-94126D01*
X138042Y-94135D01*
X137985Y-94135D01*
X137966Y-94126D01*
X137957Y-94116D01*
X137947Y-94097D01*
X137947Y-94059D01*
X137957Y-94040D01*
X138080Y-93945D02*
X137947Y-93945D01*
X137985Y-93945D02*
X137966Y-93935D01*
X137957Y-93926D01*
X137947Y-93907D01*
X137947Y-93888D01*
X138071Y-93745D02*
X138080Y-93764D01*
X138080Y-93802D01*
X138071Y-93821D01*
X138052Y-93830D01*
X137976Y-93830D01*
X137957Y-93821D01*
X137947Y-93802D01*
X137947Y-93764D01*
X137957Y-93745D01*
X137976Y-93735D01*
X137995Y-93735D01*
X138014Y-93830D01*
X138071Y-93659D02*
X138080Y-93640D01*
X138080Y-93602D01*
X138071Y-93583D01*
X138052Y-93573D01*
X138042Y-93573D01*
X138023Y-93583D01*
X138014Y-93602D01*
X138014Y-93630D01*
X138004Y-93649D01*
X137985Y-93659D01*
X137976Y-93659D01*
X137957Y-93649D01*
X137947Y-93630D01*
X137947Y-93602D01*
X137957Y-93583D01*
X138071Y-93497D02*
X138080Y-93478D01*
X138080Y-93440D01*
X138071Y-93421D01*
X138052Y-93411D01*
X138042Y-93411D01*
X138023Y-93421D01*
X138014Y-93440D01*
X138014Y-93469D01*
X138004Y-93488D01*
X137985Y-93497D01*
X137976Y-93497D01*
X137957Y-93488D01*
X137947Y-93469D01*
X137947Y-93440D01*
X137957Y-93421D01*
X138080Y-93180D02*
X137880Y-93180D01*
X137880Y-93104D01*
X137890Y-93085D01*
X137900Y-93076D01*
X137919Y-93066D01*
X137947Y-93066D01*
X137966Y-93076D01*
X137976Y-93085D01*
X137985Y-93104D01*
X137985Y-93180D01*
X138080Y-92980D02*
X137947Y-92980D01*
X137985Y-92980D02*
X137966Y-92971D01*
X137957Y-92961D01*
X137947Y-92942D01*
X137947Y-92923D01*
X138080Y-92828D02*
X138071Y-92847D01*
X138061Y-92857D01*
X138042Y-92866D01*
X137985Y-92866D01*
X137966Y-92857D01*
X137957Y-92847D01*
X137947Y-92828D01*
X137947Y-92800D01*
X137957Y-92780D01*
X137966Y-92771D01*
X137985Y-92761D01*
X138042Y-92761D01*
X138061Y-92771D01*
X138071Y-92780D01*
X138080Y-92800D01*
X138080Y-92828D01*
X137947Y-92704D02*
X137947Y-92628D01*
X137880Y-92676D02*
X138052Y-92676D01*
X138071Y-92666D01*
X138080Y-92647D01*
X138080Y-92628D01*
X138080Y-92533D02*
X138071Y-92552D01*
X138061Y-92561D01*
X138042Y-92571D01*
X137985Y-92571D01*
X137966Y-92561D01*
X137957Y-92552D01*
X137947Y-92533D01*
X137947Y-92504D01*
X137957Y-92485D01*
X137966Y-92476D01*
X137985Y-92466D01*
X138042Y-92466D01*
X138061Y-92476D01*
X138071Y-92485D01*
X138080Y-92504D01*
X138080Y-92533D01*
X138071Y-92295D02*
X138080Y-92314D01*
X138080Y-92352D01*
X138071Y-92371D01*
X138061Y-92380D01*
X138042Y-92390D01*
X137985Y-92390D01*
X137966Y-92380D01*
X137957Y-92371D01*
X137947Y-92352D01*
X137947Y-92314D01*
X137957Y-92295D01*
X138080Y-92180D02*
X138071Y-92199D01*
X138061Y-92209D01*
X138042Y-92219D01*
X137985Y-92219D01*
X137966Y-92209D01*
X137957Y-92199D01*
X137947Y-92180D01*
X137947Y-92152D01*
X137957Y-92133D01*
X137966Y-92123D01*
X137985Y-92114D01*
X138042Y-92114D01*
X138061Y-92123D01*
X138071Y-92133D01*
X138080Y-92152D01*
X138080Y-92180D01*
X138080Y-91999D02*
X138071Y-92019D01*
X138052Y-92028D01*
X137880Y-92028D01*
X139921Y-95265D02*
X139621Y-95227D01*
X139835Y-95154D01*
X139621Y-95027D01*
X139921Y-95065D01*
X139907Y-94934D02*
X139921Y-94893D01*
X139921Y-94822D01*
X139907Y-94791D01*
X139892Y-94775D01*
X139864Y-94758D01*
X139835Y-94754D01*
X139807Y-94765D01*
X139792Y-94777D01*
X139778Y-94804D01*
X139764Y-94859D01*
X139750Y-94886D01*
X139735Y-94899D01*
X139707Y-94909D01*
X139678Y-94906D01*
X139650Y-94888D01*
X139635Y-94872D01*
X139621Y-94841D01*
X139621Y-94770D01*
X139635Y-94729D01*
X139621Y-94456D02*
X139621Y-94599D01*
X139764Y-94631D01*
X139750Y-94615D01*
X139735Y-94584D01*
X139735Y-94513D01*
X139750Y-94486D01*
X139764Y-94474D01*
X139792Y-94463D01*
X139864Y-94472D01*
X139892Y-94490D01*
X139907Y-94506D01*
X139921Y-94536D01*
X139921Y-94608D01*
X139907Y-94634D01*
X139892Y-94647D01*
X139621Y-94184D02*
X139621Y-94241D01*
X139635Y-94272D01*
X139650Y-94288D01*
X139692Y-94322D01*
X139750Y-94343D01*
X139864Y-94358D01*
X139892Y-94347D01*
X139907Y-94334D01*
X139921Y-94308D01*
X139921Y-94250D01*
X139907Y-94220D01*
X139892Y-94204D01*
X139864Y-94186D01*
X139792Y-94177D01*
X139764Y-94188D01*
X139750Y-94200D01*
X139735Y-94227D01*
X139735Y-94284D01*
X139750Y-94315D01*
X139764Y-94331D01*
X139792Y-94349D01*
X139921Y-93908D02*
X139921Y-94079D01*
X139921Y-93993D02*
X139621Y-93956D01*
X139664Y-93990D01*
X139692Y-94022D01*
X139707Y-94052D01*
X139921Y-93622D02*
X139921Y-93793D01*
X139921Y-93708D02*
X139621Y-93670D01*
X139664Y-93704D01*
X139692Y-93736D01*
X139707Y-93766D01*
X139807Y-93479D02*
X139807Y-93250D01*
X139621Y-93027D02*
X139621Y-92999D01*
X139635Y-92972D01*
X139650Y-92959D01*
X139678Y-92949D01*
X139735Y-92941D01*
X139807Y-92950D01*
X139864Y-92972D01*
X139892Y-92990D01*
X139907Y-93006D01*
X139921Y-93036D01*
X139921Y-93065D01*
X139907Y-93091D01*
X139892Y-93104D01*
X139864Y-93115D01*
X139807Y-93122D01*
X139735Y-93113D01*
X139678Y-93091D01*
X139650Y-93074D01*
X139635Y-93058D01*
X139621Y-93027D01*
X139921Y-92679D02*
X139921Y-92850D01*
X139921Y-92765D02*
X139621Y-92727D01*
X139664Y-92761D01*
X139692Y-92793D01*
X139707Y-92824D01*
X139764Y-92431D02*
X139778Y-92390D01*
X139792Y-92377D01*
X139821Y-92366D01*
X139864Y-92372D01*
X139892Y-92390D01*
X139907Y-92406D01*
X139921Y-92436D01*
X139921Y-92550D01*
X139621Y-92513D01*
X139621Y-92413D01*
X139635Y-92386D01*
X139650Y-92374D01*
X139678Y-92363D01*
X139707Y-92366D01*
X139735Y-92384D01*
X139750Y-92400D01*
X139764Y-92431D01*
X139764Y-92531D01*
X139835Y-92254D02*
X139835Y-92111D01*
X139921Y-92293D02*
X139621Y-92156D01*
X139921Y-92093D01*
X139621Y-91899D02*
X139621Y-91870D01*
X139635Y-91843D01*
X139650Y-91831D01*
X139678Y-91820D01*
X139735Y-91813D01*
X139807Y-91822D01*
X139864Y-91843D01*
X139892Y-91861D01*
X139907Y-91877D01*
X139921Y-91908D01*
X139921Y-91936D01*
X139907Y-91963D01*
X139892Y-91975D01*
X139864Y-91986D01*
X139807Y-91993D01*
X139735Y-91984D01*
X139678Y-91963D01*
X139650Y-91945D01*
X139635Y-91929D01*
X139621Y-91899D01*
X139621Y-91699D02*
X139621Y-91513D01*
X139735Y-91627D01*
X139735Y-91584D01*
X139750Y-91558D01*
X139764Y-91545D01*
X139792Y-91534D01*
X139864Y-91543D01*
X139892Y-91561D01*
X139907Y-91577D01*
X139921Y-91608D01*
X139921Y-91693D01*
X139907Y-91720D01*
X139892Y-91733D01*
X138371Y-93304D02*
X138380Y-93276D01*
X138380Y-93228D01*
X138371Y-93209D01*
X138361Y-93200D01*
X138342Y-93190D01*
X138323Y-93190D01*
X138304Y-93200D01*
X138295Y-93209D01*
X138285Y-93228D01*
X138276Y-93266D01*
X138266Y-93285D01*
X138257Y-93295D01*
X138238Y-93304D01*
X138219Y-93304D01*
X138200Y-93295D01*
X138190Y-93285D01*
X138180Y-93266D01*
X138180Y-93219D01*
X138190Y-93190D01*
X138380Y-93104D02*
X138180Y-93104D01*
X138180Y-93028D01*
X138190Y-93009D01*
X138200Y-92999D01*
X138219Y-92990D01*
X138247Y-92990D01*
X138266Y-92999D01*
X138276Y-93009D01*
X138285Y-93028D01*
X138285Y-93104D01*
X138380Y-92904D02*
X138180Y-92904D01*
X138380Y-93983D02*
X138247Y-93878D01*
X138247Y-93983D02*
X138380Y-93878D01*
X138276Y-93802D02*
X138276Y-93735D01*
X138380Y-93707D02*
X138380Y-93802D01*
X138180Y-93802D01*
X138180Y-93707D01*
X138276Y-93621D02*
X138276Y-93554D01*
X138380Y-93526D02*
X138380Y-93621D01*
X138180Y-93621D01*
X138180Y-93526D01*
X138380Y-94992D02*
X138247Y-94888D01*
X138247Y-94992D02*
X138380Y-94888D01*
X138276Y-94811D02*
X138276Y-94745D01*
X138380Y-94716D02*
X138380Y-94811D01*
X138180Y-94811D01*
X138180Y-94716D01*
X138361Y-94516D02*
X138371Y-94526D01*
X138380Y-94554D01*
X138380Y-94573D01*
X138371Y-94602D01*
X138352Y-94621D01*
X138333Y-94630D01*
X138295Y-94640D01*
X138266Y-94640D01*
X138228Y-94630D01*
X138209Y-94621D01*
X138190Y-94602D01*
X138180Y-94573D01*
X138180Y-94554D01*
X138190Y-94526D01*
X138200Y-94516D01*
X138380Y-92295D02*
X138180Y-92295D01*
X138200Y-92209D02*
X138190Y-92200D01*
X138180Y-92180D01*
X138180Y-92133D01*
X138190Y-92114D01*
X138200Y-92104D01*
X138219Y-92095D01*
X138238Y-92095D01*
X138266Y-92104D01*
X138380Y-92219D01*
X138380Y-92095D01*
X138361Y-91895D02*
X138371Y-91904D01*
X138380Y-91933D01*
X138380Y-91952D01*
X138371Y-91980D01*
X138352Y-91999D01*
X138333Y-92009D01*
X138295Y-92019D01*
X138266Y-92019D01*
X138228Y-92009D01*
X138209Y-91999D01*
X138190Y-91980D01*
X138180Y-91952D01*
X138180Y-91933D01*
X138190Y-91904D01*
X138200Y-91895D01*
X137671Y-92238D02*
X137680Y-92209D01*
X137680Y-92161D01*
X137671Y-92142D01*
X137661Y-92133D01*
X137642Y-92123D01*
X137623Y-92123D01*
X137604Y-92133D01*
X137595Y-92142D01*
X137585Y-92161D01*
X137576Y-92200D01*
X137566Y-92219D01*
X137557Y-92228D01*
X137538Y-92238D01*
X137519Y-92238D01*
X137500Y-92228D01*
X137490Y-92219D01*
X137480Y-92200D01*
X137480Y-92152D01*
X137490Y-92123D01*
X137661Y-91923D02*
X137671Y-91933D01*
X137680Y-91961D01*
X137680Y-91980D01*
X137671Y-92009D01*
X137652Y-92028D01*
X137633Y-92038D01*
X137595Y-92047D01*
X137566Y-92047D01*
X137528Y-92038D01*
X137509Y-92028D01*
X137490Y-92009D01*
X137480Y-91980D01*
X137480Y-91961D01*
X137490Y-91933D01*
X137500Y-91923D01*
X137680Y-91742D02*
X137680Y-91838D01*
X137480Y-91838D01*
X137680Y-91676D02*
X137480Y-91676D01*
X137680Y-91561D02*
X137566Y-91647D01*
X137480Y-91561D02*
X137595Y-91676D01*
X137671Y-93295D02*
X137680Y-93266D01*
X137680Y-93219D01*
X137671Y-93200D01*
X137661Y-93190D01*
X137642Y-93180D01*
X137623Y-93180D01*
X137604Y-93190D01*
X137595Y-93200D01*
X137585Y-93219D01*
X137576Y-93257D01*
X137566Y-93276D01*
X137557Y-93285D01*
X137538Y-93295D01*
X137519Y-93295D01*
X137500Y-93285D01*
X137490Y-93276D01*
X137480Y-93257D01*
X137480Y-93209D01*
X137490Y-93180D01*
X137680Y-93095D02*
X137480Y-93095D01*
X137480Y-93047D01*
X137490Y-93019D01*
X137509Y-93000D01*
X137528Y-92990D01*
X137566Y-92980D01*
X137595Y-92980D01*
X137633Y-92990D01*
X137652Y-93000D01*
X137671Y-93019D01*
X137680Y-93047D01*
X137680Y-93095D01*
X137623Y-92904D02*
X137623Y-92809D01*
X137680Y-92923D02*
X137480Y-92857D01*
X137680Y-92790D01*
X137471Y-92580D02*
X137728Y-92752D01*
X137680Y-92514D02*
X137480Y-92514D01*
X137671Y-94161D02*
X137680Y-94133D01*
X137680Y-94085D01*
X137671Y-94066D01*
X137661Y-94057D01*
X137642Y-94047D01*
X137623Y-94047D01*
X137604Y-94057D01*
X137595Y-94066D01*
X137585Y-94085D01*
X137576Y-94123D01*
X137566Y-94142D01*
X137557Y-94152D01*
X137538Y-94161D01*
X137519Y-94161D01*
X137500Y-94152D01*
X137490Y-94142D01*
X137480Y-94123D01*
X137480Y-94076D01*
X137490Y-94047D01*
X137680Y-93961D02*
X137480Y-93961D01*
X137480Y-93914D01*
X137490Y-93885D01*
X137509Y-93866D01*
X137528Y-93857D01*
X137566Y-93847D01*
X137595Y-93847D01*
X137633Y-93857D01*
X137652Y-93866D01*
X137671Y-93885D01*
X137680Y-93914D01*
X137680Y-93961D01*
X137480Y-93723D02*
X137480Y-93685D01*
X137490Y-93666D01*
X137509Y-93647D01*
X137547Y-93638D01*
X137614Y-93638D01*
X137652Y-93647D01*
X137671Y-93666D01*
X137680Y-93685D01*
X137680Y-93723D01*
X137671Y-93742D01*
X137652Y-93761D01*
X137614Y-93771D01*
X137547Y-93771D01*
X137509Y-93761D01*
X137490Y-93742D01*
X137480Y-93723D01*
X137661Y-95033D02*
X137671Y-95042D01*
X137680Y-95071D01*
X137680Y-95090D01*
X137671Y-95119D01*
X137652Y-95138D01*
X137633Y-95147D01*
X137595Y-95157D01*
X137566Y-95157D01*
X137528Y-95147D01*
X137509Y-95138D01*
X137490Y-95119D01*
X137480Y-95090D01*
X137480Y-95071D01*
X137490Y-95042D01*
X137500Y-95033D01*
X137671Y-94957D02*
X137680Y-94928D01*
X137680Y-94880D01*
X137671Y-94861D01*
X137661Y-94852D01*
X137642Y-94842D01*
X137623Y-94842D01*
X137604Y-94852D01*
X137595Y-94861D01*
X137585Y-94880D01*
X137576Y-94919D01*
X137566Y-94938D01*
X137557Y-94947D01*
X137538Y-94957D01*
X137519Y-94957D01*
X137500Y-94947D01*
X137490Y-94938D01*
X137480Y-94919D01*
X137480Y-94871D01*
X137490Y-94842D01*
X137576Y-94690D02*
X137585Y-94661D01*
X137595Y-94652D01*
X137614Y-94642D01*
X137642Y-94642D01*
X137661Y-94652D01*
X137671Y-94661D01*
X137680Y-94680D01*
X137680Y-94757D01*
X137480Y-94757D01*
X137480Y-94690D01*
X137490Y-94671D01*
X137500Y-94661D01*
X137519Y-94652D01*
X137538Y-94652D01*
X137557Y-94661D01*
X137566Y-94671D01*
X137576Y-94690D01*
X137576Y-94757D01*
X140511Y-95033D02*
X140521Y-95042D01*
X140530Y-95071D01*
X140530Y-95090D01*
X140521Y-95119D01*
X140502Y-95138D01*
X140483Y-95147D01*
X140445Y-95157D01*
X140416Y-95157D01*
X140378Y-95147D01*
X140359Y-95138D01*
X140340Y-95119D01*
X140330Y-95090D01*
X140330Y-95071D01*
X140340Y-95042D01*
X140350Y-95033D01*
X140521Y-94957D02*
X140530Y-94928D01*
X140530Y-94880D01*
X140521Y-94861D01*
X140511Y-94852D01*
X140492Y-94842D01*
X140473Y-94842D01*
X140454Y-94852D01*
X140445Y-94861D01*
X140435Y-94880D01*
X140426Y-94919D01*
X140416Y-94938D01*
X140407Y-94947D01*
X140388Y-94957D01*
X140369Y-94957D01*
X140350Y-94947D01*
X140340Y-94938D01*
X140330Y-94919D01*
X140330Y-94871D01*
X140340Y-94842D01*
X140426Y-94690D02*
X140435Y-94661D01*
X140445Y-94652D01*
X140464Y-94642D01*
X140492Y-94642D01*
X140511Y-94652D01*
X140521Y-94661D01*
X140530Y-94680D01*
X140530Y-94757D01*
X140330Y-94757D01*
X140330Y-94690D01*
X140340Y-94671D01*
X140350Y-94661D01*
X140369Y-94652D01*
X140388Y-94652D01*
X140407Y-94661D01*
X140416Y-94671D01*
X140426Y-94690D01*
X140426Y-94757D01*
X140340Y-94052D02*
X140330Y-94071D01*
X140330Y-94100D01*
X140340Y-94128D01*
X140359Y-94147D01*
X140378Y-94157D01*
X140416Y-94166D01*
X140445Y-94166D01*
X140483Y-94157D01*
X140502Y-94147D01*
X140521Y-94128D01*
X140530Y-94100D01*
X140530Y-94080D01*
X140521Y-94052D01*
X140511Y-94042D01*
X140445Y-94042D01*
X140445Y-94080D01*
X140530Y-93957D02*
X140330Y-93957D01*
X140530Y-93842D01*
X140330Y-93842D01*
X140530Y-93747D02*
X140330Y-93747D01*
X140330Y-93700D01*
X140340Y-93671D01*
X140359Y-93652D01*
X140378Y-93642D01*
X140416Y-93633D01*
X140445Y-93633D01*
X140483Y-93642D01*
X140502Y-93652D01*
X140521Y-93671D01*
X140530Y-93700D01*
X140530Y-93747D01*
X140530Y-93047D02*
X140330Y-93047D01*
X140330Y-92971D01*
X140340Y-92952D01*
X140350Y-92942D01*
X140369Y-92933D01*
X140397Y-92933D01*
X140416Y-92942D01*
X140426Y-92952D01*
X140435Y-92971D01*
X140435Y-93047D01*
X140521Y-92857D02*
X140530Y-92828D01*
X140530Y-92780D01*
X140521Y-92761D01*
X140511Y-92752D01*
X140492Y-92742D01*
X140473Y-92742D01*
X140454Y-92752D01*
X140445Y-92761D01*
X140435Y-92780D01*
X140426Y-92819D01*
X140416Y-92838D01*
X140407Y-92847D01*
X140388Y-92857D01*
X140369Y-92857D01*
X140350Y-92847D01*
X140340Y-92838D01*
X140330Y-92819D01*
X140330Y-92771D01*
X140340Y-92742D01*
X140330Y-92166D02*
X140530Y-92100D01*
X140330Y-92033D01*
X140530Y-91966D02*
X140330Y-91966D01*
X140330Y-91919D01*
X140340Y-91890D01*
X140359Y-91871D01*
X140378Y-91861D01*
X140416Y-91852D01*
X140445Y-91852D01*
X140483Y-91861D01*
X140502Y-91871D01*
X140521Y-91890D01*
X140530Y-91919D01*
X140530Y-91966D01*
X140530Y-91766D02*
X140330Y-91766D01*
X140330Y-91719D01*
X140340Y-91690D01*
X140359Y-91671D01*
X140378Y-91661D01*
X140416Y-91652D01*
X140445Y-91652D01*
X140483Y-91661D01*
X140502Y-91671D01*
X140521Y-91690D01*
X140530Y-91719D01*
X140530Y-91766D01*
X138450Y-91850D02*
X138450Y-93350D01*
X138450Y-93350D02*
X139150Y-93350D01*
X139150Y-93350D02*
X139150Y-91850D01*
X138450Y-91850D02*
X139150Y-91850D01*
X139150Y-95000D02*
X139150Y-93500D01*
X139150Y-93500D02*
X138450Y-93500D01*
X138450Y-93500D02*
X138450Y-95000D01*
X139150Y-95000D02*
X138450Y-95000D01*
M02*
