G04 (created by PCBNEW (2013-dec-23)-stable) date Sun 06 Apr 2014 07:42:34 PM EDT*
%MOIN*%
G04 Gerber Fmt 3.4, Leading zero omitted, Abs format*
%FSLAX34Y34*%
G01*
G70*
G90*
G04 APERTURE LIST*
%ADD10C,0.00590551*%
%ADD11R,0.06X0.06*%
%ADD12C,0.06*%
%ADD13R,0.05X0.038*%
%ADD14C,0.027*%
%ADD15C,0.035*%
%ADD16C,0.01*%
%ADD17C,0.015*%
%ADD18C,0.006*%
G04 APERTURE END LIST*
G54D10*
G54D11*
X137000Y-94900D03*
G54D12*
X137000Y-93900D03*
X137000Y-92900D03*
X137000Y-91900D03*
G54D11*
X141000Y-91900D03*
G54D12*
X141000Y-92900D03*
X141000Y-93900D03*
X141000Y-94900D03*
G54D13*
X138800Y-92100D03*
X138800Y-92600D03*
X138800Y-93100D03*
X138800Y-94750D03*
X138800Y-94250D03*
X138800Y-93750D03*
G54D14*
X139350Y-94250D03*
G54D15*
X139350Y-93100D03*
G54D14*
X139350Y-92600D03*
G54D15*
X139350Y-92100D03*
G54D16*
X138800Y-94250D02*
X139350Y-94250D01*
G54D17*
X141000Y-93900D02*
X140500Y-94400D01*
X141000Y-93900D02*
X140500Y-93400D01*
X138800Y-93100D02*
X138800Y-93750D01*
X138800Y-93100D02*
X139350Y-93100D01*
G54D18*
X138800Y-92600D02*
X139350Y-92600D01*
G54D17*
X138800Y-92100D02*
X139600Y-92100D01*
X139600Y-94750D02*
X138800Y-94750D01*
X139800Y-94550D02*
X139600Y-94750D01*
X139800Y-92300D02*
X139800Y-94550D01*
X139600Y-92100D02*
X139800Y-92300D01*
X138800Y-92100D02*
X139350Y-92100D01*
G54D10*
G36*
X139525Y-93959D02*
X139416Y-93915D01*
X139283Y-93914D01*
X139250Y-93928D01*
X139250Y-93900D01*
X139250Y-93520D01*
X139219Y-93446D01*
X139197Y-93425D01*
X139219Y-93403D01*
X139249Y-93329D01*
X139250Y-93250D01*
X139250Y-92921D01*
X139283Y-92934D01*
X139416Y-92935D01*
X139525Y-92890D01*
X139525Y-93959D01*
X139525Y-93959D01*
G37*
G54D16*
X139525Y-93959D02*
X139416Y-93915D01*
X139283Y-93914D01*
X139250Y-93928D01*
X139250Y-93900D01*
X139250Y-93520D01*
X139219Y-93446D01*
X139197Y-93425D01*
X139219Y-93403D01*
X139249Y-93329D01*
X139250Y-93250D01*
X139250Y-92921D01*
X139283Y-92934D01*
X139416Y-92935D01*
X139525Y-92890D01*
X139525Y-93959D01*
G54D10*
G36*
X141280Y-94475D02*
X141099Y-94400D01*
X140900Y-94399D01*
X140717Y-94475D01*
X140576Y-94616D01*
X140500Y-94800D01*
X140499Y-94999D01*
X140574Y-95180D01*
X139050Y-95180D01*
X139050Y-95140D01*
X139089Y-95140D01*
X139163Y-95109D01*
X139219Y-95053D01*
X139231Y-95025D01*
X139600Y-95025D01*
X139705Y-95004D01*
X139705Y-95004D01*
X139794Y-94944D01*
X139994Y-94744D01*
X140054Y-94655D01*
X140054Y-94655D01*
X140075Y-94550D01*
X140075Y-92300D01*
X140054Y-92194D01*
X140054Y-92194D01*
X139994Y-92105D01*
X139794Y-91905D01*
X139705Y-91845D01*
X139606Y-91826D01*
X139562Y-91782D01*
X139424Y-91725D01*
X139275Y-91724D01*
X139185Y-91762D01*
X139163Y-91740D01*
X139089Y-91710D01*
X139010Y-91709D01*
X138510Y-91709D01*
X138436Y-91740D01*
X138380Y-91796D01*
X138350Y-91870D01*
X138349Y-91949D01*
X138349Y-92329D01*
X138358Y-92349D01*
X138350Y-92370D01*
X138349Y-92449D01*
X138349Y-92829D01*
X138358Y-92849D01*
X138350Y-92870D01*
X138349Y-92949D01*
X138349Y-93329D01*
X138380Y-93403D01*
X138402Y-93424D01*
X138380Y-93446D01*
X138350Y-93520D01*
X138349Y-93599D01*
X138349Y-93979D01*
X138358Y-93999D01*
X138350Y-94020D01*
X138349Y-94099D01*
X138349Y-94479D01*
X138358Y-94499D01*
X138350Y-94520D01*
X138349Y-94599D01*
X138349Y-94979D01*
X138380Y-95053D01*
X138436Y-95109D01*
X138510Y-95139D01*
X138550Y-95140D01*
X138550Y-95180D01*
X137500Y-95180D01*
X137500Y-95160D01*
X137500Y-94560D01*
X137469Y-94486D01*
X137413Y-94430D01*
X137339Y-94400D01*
X137260Y-94399D01*
X137099Y-94399D01*
X137282Y-94324D01*
X137423Y-94183D01*
X137499Y-93999D01*
X137500Y-93800D01*
X137424Y-93617D01*
X137283Y-93476D01*
X137099Y-93400D01*
X136900Y-93399D01*
X136719Y-93474D01*
X136719Y-93324D01*
X136900Y-93399D01*
X137099Y-93400D01*
X137282Y-93324D01*
X137423Y-93183D01*
X137499Y-92999D01*
X137500Y-92800D01*
X137424Y-92617D01*
X137283Y-92476D01*
X137099Y-92400D01*
X136900Y-92399D01*
X136719Y-92474D01*
X136719Y-92324D01*
X136900Y-92399D01*
X137099Y-92400D01*
X137282Y-92324D01*
X137423Y-92183D01*
X137499Y-91999D01*
X137500Y-91800D01*
X137425Y-91619D01*
X140499Y-91619D01*
X140499Y-91639D01*
X140499Y-92239D01*
X140530Y-92313D01*
X140586Y-92369D01*
X140660Y-92399D01*
X140739Y-92400D01*
X140900Y-92400D01*
X140717Y-92475D01*
X140576Y-92616D01*
X140500Y-92800D01*
X140499Y-92999D01*
X140575Y-93182D01*
X140716Y-93323D01*
X140900Y-93399D01*
X141099Y-93400D01*
X141280Y-93325D01*
X141280Y-93475D01*
X141099Y-93400D01*
X140900Y-93399D01*
X140717Y-93475D01*
X140576Y-93616D01*
X140500Y-93800D01*
X140499Y-93999D01*
X140575Y-94182D01*
X140716Y-94323D01*
X140900Y-94399D01*
X141099Y-94400D01*
X141280Y-94325D01*
X141280Y-94475D01*
X141280Y-94475D01*
G37*
G54D16*
X141280Y-94475D02*
X141099Y-94400D01*
X140900Y-94399D01*
X140717Y-94475D01*
X140576Y-94616D01*
X140500Y-94800D01*
X140499Y-94999D01*
X140574Y-95180D01*
X139050Y-95180D01*
X139050Y-95140D01*
X139089Y-95140D01*
X139163Y-95109D01*
X139219Y-95053D01*
X139231Y-95025D01*
X139600Y-95025D01*
X139705Y-95004D01*
X139705Y-95004D01*
X139794Y-94944D01*
X139994Y-94744D01*
X140054Y-94655D01*
X140054Y-94655D01*
X140075Y-94550D01*
X140075Y-92300D01*
X140054Y-92194D01*
X140054Y-92194D01*
X139994Y-92105D01*
X139794Y-91905D01*
X139705Y-91845D01*
X139606Y-91826D01*
X139562Y-91782D01*
X139424Y-91725D01*
X139275Y-91724D01*
X139185Y-91762D01*
X139163Y-91740D01*
X139089Y-91710D01*
X139010Y-91709D01*
X138510Y-91709D01*
X138436Y-91740D01*
X138380Y-91796D01*
X138350Y-91870D01*
X138349Y-91949D01*
X138349Y-92329D01*
X138358Y-92349D01*
X138350Y-92370D01*
X138349Y-92449D01*
X138349Y-92829D01*
X138358Y-92849D01*
X138350Y-92870D01*
X138349Y-92949D01*
X138349Y-93329D01*
X138380Y-93403D01*
X138402Y-93424D01*
X138380Y-93446D01*
X138350Y-93520D01*
X138349Y-93599D01*
X138349Y-93979D01*
X138358Y-93999D01*
X138350Y-94020D01*
X138349Y-94099D01*
X138349Y-94479D01*
X138358Y-94499D01*
X138350Y-94520D01*
X138349Y-94599D01*
X138349Y-94979D01*
X138380Y-95053D01*
X138436Y-95109D01*
X138510Y-95139D01*
X138550Y-95140D01*
X138550Y-95180D01*
X137500Y-95180D01*
X137500Y-95160D01*
X137500Y-94560D01*
X137469Y-94486D01*
X137413Y-94430D01*
X137339Y-94400D01*
X137260Y-94399D01*
X137099Y-94399D01*
X137282Y-94324D01*
X137423Y-94183D01*
X137499Y-93999D01*
X137500Y-93800D01*
X137424Y-93617D01*
X137283Y-93476D01*
X137099Y-93400D01*
X136900Y-93399D01*
X136719Y-93474D01*
X136719Y-93324D01*
X136900Y-93399D01*
X137099Y-93400D01*
X137282Y-93324D01*
X137423Y-93183D01*
X137499Y-92999D01*
X137500Y-92800D01*
X137424Y-92617D01*
X137283Y-92476D01*
X137099Y-92400D01*
X136900Y-92399D01*
X136719Y-92474D01*
X136719Y-92324D01*
X136900Y-92399D01*
X137099Y-92400D01*
X137282Y-92324D01*
X137423Y-92183D01*
X137499Y-91999D01*
X137500Y-91800D01*
X137425Y-91619D01*
X140499Y-91619D01*
X140499Y-91639D01*
X140499Y-92239D01*
X140530Y-92313D01*
X140586Y-92369D01*
X140660Y-92399D01*
X140739Y-92400D01*
X140900Y-92400D01*
X140717Y-92475D01*
X140576Y-92616D01*
X140500Y-92800D01*
X140499Y-92999D01*
X140575Y-93182D01*
X140716Y-93323D01*
X140900Y-93399D01*
X141099Y-93400D01*
X141280Y-93325D01*
X141280Y-93475D01*
X141099Y-93400D01*
X140900Y-93399D01*
X140717Y-93475D01*
X140576Y-93616D01*
X140500Y-93800D01*
X140499Y-93999D01*
X140575Y-94182D01*
X140716Y-94323D01*
X140900Y-94399D01*
X141099Y-94400D01*
X141280Y-94325D01*
X141280Y-94475D01*
M02*
