G04 (created by PCBNEW (2013-jul-07)-stable) date Tue 11 Feb 2014 01:04:26 AM EST*
%MOIN*%
G04 Gerber Fmt 3.4, Leading zero omitted, Abs format*
%FSLAX34Y34*%
G01*
G70*
G90*
G04 APERTURE LIST*
%ADD10C,0.00590551*%
%ADD11R,0.0314961X0.0137795*%
%ADD12R,0.0137795X0.0334646*%
%ADD13R,0.06X0.06*%
%ADD14R,0.0394X0.0354*%
%ADD15R,0.0354X0.0394*%
%ADD16C,0.06*%
%ADD17C,0.035*%
%ADD18C,0.01*%
G04 APERTURE END LIST*
G54D10*
G54D11*
X136662Y-80207D03*
X136662Y-80404D03*
X136662Y-80601D03*
X136662Y-80798D03*
X136662Y-80995D03*
X136662Y-81192D03*
G54D12*
X136957Y-81467D03*
X137154Y-81467D03*
X137351Y-81467D03*
X137548Y-81467D03*
X137745Y-81467D03*
X137942Y-81467D03*
G54D11*
X138237Y-81192D03*
X138237Y-80995D03*
X138237Y-80798D03*
X138237Y-80601D03*
X138237Y-80404D03*
X138237Y-80207D03*
G54D12*
X137942Y-79932D03*
X137745Y-79932D03*
X137548Y-79932D03*
X137351Y-79932D03*
X137154Y-79932D03*
X136957Y-79932D03*
G54D13*
X136000Y-79000D03*
G54D14*
X138750Y-81096D03*
X138750Y-80504D03*
G54D15*
X137954Y-82700D03*
X138546Y-82700D03*
X137954Y-82150D03*
X138546Y-82150D03*
X137754Y-79400D03*
X138346Y-79400D03*
G54D13*
X140000Y-79000D03*
G54D16*
X140000Y-80000D03*
X140000Y-81000D03*
X140000Y-82000D03*
X140000Y-83000D03*
G54D13*
X135000Y-79000D03*
G54D16*
X135000Y-80000D03*
X135000Y-81000D03*
X135000Y-82000D03*
X135000Y-83000D03*
G54D17*
X137450Y-82450D03*
X135900Y-80200D03*
X136900Y-82450D03*
X139200Y-82150D03*
X136200Y-80600D03*
X139200Y-80800D03*
G54D18*
X137351Y-81487D02*
X137351Y-82351D01*
X137351Y-82351D02*
X137450Y-82450D01*
X135900Y-80200D02*
X135900Y-80207D01*
X135900Y-80207D02*
X135900Y-80200D01*
X135900Y-80200D02*
X135900Y-80207D01*
X136662Y-80207D02*
X135900Y-80207D01*
X135900Y-80207D02*
X135792Y-80207D01*
X135792Y-80207D02*
X135650Y-80350D01*
X135650Y-80350D02*
X135000Y-81000D01*
X137351Y-79912D02*
X137351Y-79651D01*
X136400Y-79400D02*
X136000Y-79000D01*
X137100Y-79400D02*
X136400Y-79400D01*
X137351Y-79651D02*
X137100Y-79400D01*
X136957Y-81487D02*
X136312Y-81487D01*
X135000Y-82800D02*
X135000Y-83000D01*
X136312Y-81487D02*
X135000Y-82800D01*
X136662Y-81192D02*
X136307Y-81192D01*
X135500Y-82000D02*
X135000Y-82000D01*
X136307Y-81192D02*
X135500Y-82000D01*
X136662Y-81192D02*
X136557Y-81192D01*
X137745Y-81487D02*
X137745Y-81695D01*
X139800Y-81800D02*
X140000Y-82000D01*
X137850Y-81800D02*
X139800Y-81800D01*
X137745Y-81695D02*
X137850Y-81800D01*
X137942Y-81487D02*
X139512Y-81487D01*
X139512Y-81487D02*
X140000Y-81000D01*
X137154Y-79912D02*
X137154Y-79704D01*
X135600Y-79600D02*
X135000Y-79000D01*
X137050Y-79600D02*
X135600Y-79600D01*
X137154Y-79704D02*
X137050Y-79600D01*
X136957Y-79912D02*
X135087Y-79912D01*
X135087Y-79912D02*
X135000Y-80000D01*
X135012Y-80012D02*
X135000Y-80000D01*
X137154Y-82195D02*
X136900Y-82450D01*
X137154Y-81487D02*
X137154Y-82195D01*
X137300Y-82750D02*
X137650Y-83100D01*
X139900Y-83100D02*
X140000Y-83000D01*
X137650Y-83100D02*
X139900Y-83100D01*
X137700Y-82750D02*
X137904Y-82750D01*
X137154Y-82604D02*
X137300Y-82750D01*
X137300Y-82750D02*
X137700Y-82750D01*
X137154Y-81487D02*
X137154Y-82604D01*
X137904Y-82750D02*
X137954Y-82700D01*
X138346Y-79400D02*
X138346Y-80100D01*
X138346Y-80100D02*
X138750Y-80504D01*
X139200Y-82150D02*
X139096Y-82150D01*
X139096Y-82150D02*
X138546Y-82700D01*
X138546Y-82150D02*
X139200Y-82150D01*
X138750Y-80504D02*
X139146Y-80504D01*
X139146Y-80504D02*
X139500Y-80150D01*
X139500Y-80150D02*
X139500Y-79500D01*
X139500Y-79500D02*
X140000Y-79000D01*
X138446Y-79500D02*
X138346Y-79400D01*
X139500Y-79500D02*
X140000Y-79000D01*
X138237Y-80207D02*
X138453Y-80207D01*
X138453Y-80207D02*
X138750Y-80504D01*
X138237Y-80404D02*
X138650Y-80404D01*
X138650Y-80404D02*
X138750Y-80504D01*
X138237Y-80798D02*
X138455Y-80798D01*
X138455Y-80798D02*
X138750Y-80504D01*
X137745Y-79912D02*
X137745Y-79408D01*
X137745Y-79408D02*
X137754Y-79400D01*
X137548Y-81487D02*
X137548Y-81744D01*
X137548Y-81744D02*
X137954Y-82150D01*
X136201Y-80601D02*
X136200Y-80600D01*
X136662Y-80601D02*
X136201Y-80601D01*
X138750Y-81096D02*
X138846Y-81096D01*
X138750Y-81096D02*
X138904Y-81096D01*
X138904Y-81096D02*
X139200Y-80800D01*
X139200Y-80800D02*
X140000Y-80000D01*
X138237Y-81192D02*
X138653Y-81192D01*
X138653Y-81192D02*
X138750Y-81096D01*
M02*
