G04 (created by PCBNEW (2013-jul-07)-stable) date Tue 11 Feb 2014 01:04:26 AM EST*
%MOIN*%
G04 Gerber Fmt 3.4, Leading zero omitted, Abs format*
%FSLAX34Y34*%
G01*
G70*
G90*
G04 APERTURE LIST*
%ADD10C,0.00590551*%
%ADD11C,0.006*%
%ADD12C,0.005*%
%ADD13C,0.012*%
%ADD14C,0.0016*%
G04 APERTURE END LIST*
G54D10*
X136985Y-80207D02*
G75*
G03X136985Y-80207I-27J0D01*
G74*
G01*
X136662Y-79912D02*
X138237Y-79912D01*
X138237Y-79912D02*
X138237Y-81487D01*
X138237Y-81487D02*
X136662Y-81487D01*
X136662Y-81487D02*
X136662Y-79912D01*
G54D11*
X136500Y-79500D02*
X135500Y-79500D01*
X135500Y-78500D02*
X136500Y-78500D01*
X135500Y-79500D02*
X135500Y-78500D01*
X136500Y-78500D02*
X136500Y-79500D01*
G54D12*
X138590Y-81020D02*
X138910Y-81020D01*
X138900Y-80580D02*
X138590Y-80580D01*
X138910Y-80480D02*
X138910Y-81120D01*
X138910Y-81120D02*
X138590Y-81120D01*
X138590Y-81120D02*
X138590Y-80480D01*
X138590Y-80480D02*
X138910Y-80480D01*
X138030Y-82540D02*
X138030Y-82860D01*
X138470Y-82850D02*
X138470Y-82540D01*
X138570Y-82860D02*
X137930Y-82860D01*
X137930Y-82860D02*
X137930Y-82540D01*
X137930Y-82540D02*
X138570Y-82540D01*
X138570Y-82540D02*
X138570Y-82860D01*
X138030Y-81990D02*
X138030Y-82310D01*
X138470Y-82300D02*
X138470Y-81990D01*
X138570Y-82310D02*
X137930Y-82310D01*
X137930Y-82310D02*
X137930Y-81990D01*
X137930Y-81990D02*
X138570Y-81990D01*
X138570Y-81990D02*
X138570Y-82310D01*
X137830Y-79240D02*
X137830Y-79560D01*
X138270Y-79550D02*
X138270Y-79240D01*
X138370Y-79560D02*
X137730Y-79560D01*
X137730Y-79560D02*
X137730Y-79240D01*
X137730Y-79240D02*
X138370Y-79240D01*
X138370Y-79240D02*
X138370Y-79560D01*
G54D13*
X140500Y-78500D02*
X139500Y-78500D01*
X139500Y-83500D02*
X140500Y-83500D01*
X140500Y-78500D02*
X140500Y-83500D01*
X139500Y-83500D02*
X139500Y-78500D01*
X135500Y-78500D02*
X134500Y-78500D01*
X134500Y-83500D02*
X135500Y-83500D01*
X135500Y-78500D02*
X135500Y-83500D01*
X134500Y-83500D02*
X134500Y-78500D01*
G54D14*
X139249Y-80426D02*
X139257Y-80434D01*
X139264Y-80457D01*
X139264Y-80472D01*
X139257Y-80495D01*
X139241Y-80510D01*
X139226Y-80518D01*
X139196Y-80525D01*
X139173Y-80525D01*
X139142Y-80518D01*
X139127Y-80510D01*
X139112Y-80495D01*
X139104Y-80472D01*
X139104Y-80457D01*
X139112Y-80434D01*
X139120Y-80426D01*
X139120Y-80365D02*
X139112Y-80358D01*
X139104Y-80342D01*
X139104Y-80304D01*
X139112Y-80289D01*
X139120Y-80281D01*
X139135Y-80274D01*
X139150Y-80274D01*
X139173Y-80281D01*
X139264Y-80373D01*
X139264Y-80274D01*
X138973Y-82999D02*
X138965Y-83007D01*
X138942Y-83014D01*
X138927Y-83014D01*
X138904Y-83007D01*
X138889Y-82991D01*
X138881Y-82976D01*
X138874Y-82946D01*
X138874Y-82923D01*
X138881Y-82892D01*
X138889Y-82877D01*
X138904Y-82862D01*
X138927Y-82854D01*
X138942Y-82854D01*
X138965Y-82862D01*
X138973Y-82870D01*
X139110Y-82908D02*
X139110Y-83014D01*
X139072Y-82847D02*
X139034Y-82961D01*
X139133Y-82961D01*
X138973Y-82449D02*
X138965Y-82457D01*
X138942Y-82464D01*
X138927Y-82464D01*
X138904Y-82457D01*
X138889Y-82441D01*
X138881Y-82426D01*
X138874Y-82396D01*
X138874Y-82373D01*
X138881Y-82342D01*
X138889Y-82327D01*
X138904Y-82312D01*
X138927Y-82304D01*
X138942Y-82304D01*
X138965Y-82312D01*
X138973Y-82320D01*
X139125Y-82464D02*
X139034Y-82464D01*
X139080Y-82464D02*
X139080Y-82304D01*
X139064Y-82327D01*
X139049Y-82342D01*
X139034Y-82350D01*
X138323Y-79049D02*
X138315Y-79057D01*
X138292Y-79064D01*
X138277Y-79064D01*
X138254Y-79057D01*
X138239Y-79041D01*
X138231Y-79026D01*
X138224Y-78996D01*
X138224Y-78973D01*
X138231Y-78942D01*
X138239Y-78927D01*
X138254Y-78912D01*
X138277Y-78904D01*
X138292Y-78904D01*
X138315Y-78912D01*
X138323Y-78920D01*
X138376Y-78904D02*
X138475Y-78904D01*
X138422Y-78965D01*
X138445Y-78965D01*
X138460Y-78973D01*
X138468Y-78980D01*
X138475Y-78996D01*
X138475Y-79034D01*
X138468Y-79049D01*
X138460Y-79057D01*
X138445Y-79064D01*
X138399Y-79064D01*
X138384Y-79057D01*
X138376Y-79049D01*
M02*
