G04 (created by PCBNEW (2013-jul-07)-stable) date Tue 11 Feb 2014 01:04:26 AM EST*
%MOIN*%
G04 Gerber Fmt 3.4, Leading zero omitted, Abs format*
%FSLAX34Y34*%
G01*
G70*
G90*
G04 APERTURE LIST*
%ADD10C,0.00590551*%
%ADD11R,0.06X0.06*%
%ADD12R,0.038X0.05*%
%ADD13C,0.06*%
%ADD14C,0.035*%
%ADD15C,0.01*%
G04 APERTURE END LIST*
G54D10*
G54D11*
X136000Y-79000D03*
G54D12*
X137000Y-83050D03*
X137500Y-83050D03*
X138000Y-83050D03*
X139100Y-83050D03*
X138600Y-83050D03*
X135900Y-83050D03*
X136400Y-83050D03*
G54D11*
X140000Y-79000D03*
G54D13*
X140000Y-80000D03*
X140000Y-81000D03*
X140000Y-82000D03*
X140000Y-83000D03*
G54D11*
X135000Y-79000D03*
G54D13*
X135000Y-80000D03*
X135000Y-81000D03*
X135000Y-82000D03*
X135000Y-83000D03*
G54D14*
X137450Y-82450D03*
X135900Y-80200D03*
X136900Y-82450D03*
X139200Y-82150D03*
X136200Y-80600D03*
X139200Y-80800D03*
G54D15*
X137500Y-82500D02*
X137500Y-83050D01*
X137450Y-82450D02*
X137500Y-82500D01*
X135900Y-83050D02*
X135900Y-80200D01*
X139100Y-83050D02*
X139100Y-82900D01*
X139100Y-82900D02*
X140000Y-82000D01*
X137000Y-82550D02*
X137000Y-83050D01*
X136900Y-82450D02*
X137000Y-82550D01*
X138700Y-82150D02*
X139200Y-82150D01*
X139200Y-82150D02*
X139500Y-81850D01*
X139500Y-81850D02*
X139500Y-79500D01*
X139500Y-79500D02*
X140000Y-79000D01*
X136400Y-83050D02*
X136400Y-82500D01*
X136750Y-82150D02*
X137250Y-82150D01*
X136400Y-82500D02*
X136750Y-82150D01*
X139500Y-79500D02*
X140000Y-79000D01*
X138600Y-83050D02*
X138600Y-82250D01*
X138600Y-82250D02*
X138700Y-82150D01*
X138000Y-83050D02*
X138000Y-82850D01*
X136400Y-83050D02*
X136400Y-82850D01*
X137100Y-82150D02*
X137250Y-82150D01*
X137250Y-82150D02*
X138700Y-82150D01*
X138939Y-81950D02*
X138950Y-81950D01*
X136200Y-80600D02*
X136200Y-81800D01*
X136200Y-81800D02*
X136350Y-81950D01*
X136350Y-81950D02*
X138939Y-81950D01*
X139200Y-81700D02*
X139200Y-80800D01*
X138950Y-81950D02*
X139200Y-81700D01*
G54D10*
G36*
X136774Y-82150D02*
X136716Y-82174D01*
X136624Y-82265D01*
X136575Y-82385D01*
X136574Y-82514D01*
X136589Y-82549D01*
X136540Y-82549D01*
X136512Y-82550D01*
X136450Y-82612D01*
X136450Y-83000D01*
X136457Y-83000D01*
X136457Y-83100D01*
X136450Y-83100D01*
X136450Y-83107D01*
X136350Y-83107D01*
X136350Y-83100D01*
X136342Y-83100D01*
X136342Y-83000D01*
X136350Y-83000D01*
X136350Y-82612D01*
X136287Y-82550D01*
X136259Y-82549D01*
X136160Y-82550D01*
X136100Y-82574D01*
X136100Y-81982D01*
X136208Y-82091D01*
X136208Y-82091D01*
X136273Y-82134D01*
X136273Y-82134D01*
X136286Y-82137D01*
X136350Y-82150D01*
X136774Y-82150D01*
X136774Y-82150D01*
G37*
G54D15*
X136774Y-82150D02*
X136716Y-82174D01*
X136624Y-82265D01*
X136575Y-82385D01*
X136574Y-82514D01*
X136589Y-82549D01*
X136540Y-82549D01*
X136512Y-82550D01*
X136450Y-82612D01*
X136450Y-83000D01*
X136457Y-83000D01*
X136457Y-83100D01*
X136450Y-83100D01*
X136450Y-83107D01*
X136350Y-83107D01*
X136350Y-83100D01*
X136342Y-83100D01*
X136342Y-83000D01*
X136350Y-83000D01*
X136350Y-82612D01*
X136287Y-82550D01*
X136259Y-82549D01*
X136160Y-82550D01*
X136100Y-82574D01*
X136100Y-81982D01*
X136208Y-82091D01*
X136208Y-82091D01*
X136273Y-82134D01*
X136273Y-82134D01*
X136286Y-82137D01*
X136350Y-82150D01*
X136774Y-82150D01*
G54D10*
G36*
X137324Y-82150D02*
X137266Y-82174D01*
X137174Y-82265D01*
X137084Y-82174D01*
X137025Y-82150D01*
X137324Y-82150D01*
X137324Y-82150D01*
G37*
G54D15*
X137324Y-82150D02*
X137266Y-82174D01*
X137174Y-82265D01*
X137084Y-82174D01*
X137025Y-82150D01*
X137324Y-82150D01*
G54D10*
G36*
X140300Y-81663D02*
X140255Y-81618D01*
X140089Y-81550D01*
X139910Y-81549D01*
X139745Y-81618D01*
X139618Y-81744D01*
X139550Y-81910D01*
X139549Y-82089D01*
X139572Y-82144D01*
X139067Y-82649D01*
X138993Y-82649D01*
X138931Y-82588D01*
X138839Y-82550D01*
X138740Y-82549D01*
X138712Y-82550D01*
X138650Y-82612D01*
X138650Y-83000D01*
X138657Y-83000D01*
X138657Y-83100D01*
X138650Y-83100D01*
X138650Y-83107D01*
X138550Y-83107D01*
X138550Y-83100D01*
X138550Y-83000D01*
X138550Y-82612D01*
X138487Y-82550D01*
X138459Y-82549D01*
X138360Y-82550D01*
X138300Y-82574D01*
X138239Y-82550D01*
X138140Y-82549D01*
X138112Y-82550D01*
X138050Y-82612D01*
X138050Y-83000D01*
X138222Y-83000D01*
X138300Y-83000D01*
X138377Y-83000D01*
X138550Y-83000D01*
X138550Y-83100D01*
X138377Y-83100D01*
X138300Y-83100D01*
X138222Y-83100D01*
X138050Y-83100D01*
X138050Y-83107D01*
X137950Y-83107D01*
X137950Y-83100D01*
X137942Y-83100D01*
X137942Y-83000D01*
X137950Y-83000D01*
X137950Y-82612D01*
X137887Y-82550D01*
X137859Y-82549D01*
X137760Y-82550D01*
X137774Y-82514D01*
X137775Y-82385D01*
X137725Y-82266D01*
X137634Y-82174D01*
X137575Y-82150D01*
X138300Y-82150D01*
X138939Y-82150D01*
X138950Y-82150D01*
X139026Y-82134D01*
X139091Y-82091D01*
X139341Y-81841D01*
X139341Y-81841D01*
X139370Y-81798D01*
X139384Y-81776D01*
X139384Y-81776D01*
X139399Y-81700D01*
X139400Y-81700D01*
X139400Y-81059D01*
X139475Y-80984D01*
X139524Y-80864D01*
X139525Y-80735D01*
X139475Y-80616D01*
X139384Y-80524D01*
X139264Y-80475D01*
X139135Y-80474D01*
X139016Y-80524D01*
X138924Y-80615D01*
X138875Y-80735D01*
X138874Y-80864D01*
X138924Y-80983D01*
X139000Y-81059D01*
X139000Y-81617D01*
X138867Y-81750D01*
X138300Y-81750D01*
X138300Y-81550D01*
X138300Y-79850D01*
X136600Y-79850D01*
X136600Y-81550D01*
X138300Y-81550D01*
X138300Y-81750D01*
X136432Y-81750D01*
X136400Y-81717D01*
X136400Y-80859D01*
X136475Y-80784D01*
X136524Y-80664D01*
X136525Y-80535D01*
X136475Y-80416D01*
X136384Y-80324D01*
X136264Y-80275D01*
X136220Y-80275D01*
X136224Y-80264D01*
X136225Y-80135D01*
X136175Y-80016D01*
X136084Y-79924D01*
X135964Y-79875D01*
X135835Y-79874D01*
X135716Y-79924D01*
X135624Y-80015D01*
X135575Y-80135D01*
X135574Y-80264D01*
X135624Y-80383D01*
X135700Y-80459D01*
X135700Y-82649D01*
X135680Y-82649D01*
X135625Y-82672D01*
X135582Y-82714D01*
X135560Y-82770D01*
X135559Y-82829D01*
X135559Y-83300D01*
X135336Y-83300D01*
X135381Y-83255D01*
X135449Y-83089D01*
X135450Y-82910D01*
X135381Y-82745D01*
X135255Y-82618D01*
X135089Y-82550D01*
X134910Y-82549D01*
X134745Y-82618D01*
X134700Y-82663D01*
X134700Y-82336D01*
X134744Y-82381D01*
X134910Y-82449D01*
X135089Y-82450D01*
X135254Y-82381D01*
X135381Y-82255D01*
X135449Y-82089D01*
X135450Y-81910D01*
X135381Y-81745D01*
X135255Y-81618D01*
X135089Y-81550D01*
X134910Y-81549D01*
X134745Y-81618D01*
X134700Y-81663D01*
X134700Y-81336D01*
X134744Y-81381D01*
X134910Y-81449D01*
X135089Y-81450D01*
X135254Y-81381D01*
X135381Y-81255D01*
X135449Y-81089D01*
X135450Y-80910D01*
X135381Y-80745D01*
X135255Y-80618D01*
X135089Y-80550D01*
X134910Y-80549D01*
X134745Y-80618D01*
X134700Y-80663D01*
X134700Y-80336D01*
X134744Y-80381D01*
X134910Y-80449D01*
X135089Y-80450D01*
X135254Y-80381D01*
X135381Y-80255D01*
X135449Y-80089D01*
X135450Y-79910D01*
X135381Y-79745D01*
X135255Y-79618D01*
X135089Y-79550D01*
X134910Y-79549D01*
X134745Y-79618D01*
X134700Y-79663D01*
X134700Y-79450D01*
X134729Y-79450D01*
X135329Y-79450D01*
X135384Y-79427D01*
X135427Y-79385D01*
X135449Y-79329D01*
X135450Y-79270D01*
X135450Y-78700D01*
X135549Y-78700D01*
X135549Y-78729D01*
X135549Y-79329D01*
X135572Y-79384D01*
X135614Y-79427D01*
X135670Y-79449D01*
X135729Y-79450D01*
X136329Y-79450D01*
X136384Y-79427D01*
X136427Y-79385D01*
X136449Y-79329D01*
X136450Y-79270D01*
X136450Y-78700D01*
X139449Y-78700D01*
X139450Y-78887D01*
X139512Y-78950D01*
X139950Y-78950D01*
X139950Y-78942D01*
X140050Y-78942D01*
X140050Y-78950D01*
X140057Y-78950D01*
X140057Y-79050D01*
X140050Y-79050D01*
X140050Y-79487D01*
X140112Y-79550D01*
X140250Y-79550D01*
X140300Y-79549D01*
X140300Y-79663D01*
X140255Y-79618D01*
X140089Y-79550D01*
X139950Y-79549D01*
X139950Y-79487D01*
X139950Y-79050D01*
X139512Y-79050D01*
X139450Y-79112D01*
X139449Y-79349D01*
X139487Y-79441D01*
X139558Y-79511D01*
X139650Y-79549D01*
X139749Y-79550D01*
X139887Y-79550D01*
X139950Y-79487D01*
X139950Y-79549D01*
X139910Y-79549D01*
X139745Y-79618D01*
X139618Y-79744D01*
X139550Y-79910D01*
X139549Y-80089D01*
X139618Y-80254D01*
X139744Y-80381D01*
X139910Y-80449D01*
X140089Y-80450D01*
X140254Y-80381D01*
X140300Y-80336D01*
X140300Y-80663D01*
X140255Y-80618D01*
X140089Y-80550D01*
X139910Y-80549D01*
X139745Y-80618D01*
X139618Y-80744D01*
X139550Y-80910D01*
X139549Y-81089D01*
X139618Y-81254D01*
X139744Y-81381D01*
X139910Y-81449D01*
X140089Y-81450D01*
X140254Y-81381D01*
X140300Y-81336D01*
X140300Y-81663D01*
X140300Y-81663D01*
G37*
G54D15*
X140300Y-81663D02*
X140255Y-81618D01*
X140089Y-81550D01*
X139910Y-81549D01*
X139745Y-81618D01*
X139618Y-81744D01*
X139550Y-81910D01*
X139549Y-82089D01*
X139572Y-82144D01*
X139067Y-82649D01*
X138993Y-82649D01*
X138931Y-82588D01*
X138839Y-82550D01*
X138740Y-82549D01*
X138712Y-82550D01*
X138650Y-82612D01*
X138650Y-83000D01*
X138657Y-83000D01*
X138657Y-83100D01*
X138650Y-83100D01*
X138650Y-83107D01*
X138550Y-83107D01*
X138550Y-83100D01*
X138550Y-83000D01*
X138550Y-82612D01*
X138487Y-82550D01*
X138459Y-82549D01*
X138360Y-82550D01*
X138300Y-82574D01*
X138239Y-82550D01*
X138140Y-82549D01*
X138112Y-82550D01*
X138050Y-82612D01*
X138050Y-83000D01*
X138222Y-83000D01*
X138300Y-83000D01*
X138377Y-83000D01*
X138550Y-83000D01*
X138550Y-83100D01*
X138377Y-83100D01*
X138300Y-83100D01*
X138222Y-83100D01*
X138050Y-83100D01*
X138050Y-83107D01*
X137950Y-83107D01*
X137950Y-83100D01*
X137942Y-83100D01*
X137942Y-83000D01*
X137950Y-83000D01*
X137950Y-82612D01*
X137887Y-82550D01*
X137859Y-82549D01*
X137760Y-82550D01*
X137774Y-82514D01*
X137775Y-82385D01*
X137725Y-82266D01*
X137634Y-82174D01*
X137575Y-82150D01*
X138300Y-82150D01*
X138939Y-82150D01*
X138950Y-82150D01*
X139026Y-82134D01*
X139091Y-82091D01*
X139341Y-81841D01*
X139341Y-81841D01*
X139370Y-81798D01*
X139384Y-81776D01*
X139384Y-81776D01*
X139399Y-81700D01*
X139400Y-81700D01*
X139400Y-81059D01*
X139475Y-80984D01*
X139524Y-80864D01*
X139525Y-80735D01*
X139475Y-80616D01*
X139384Y-80524D01*
X139264Y-80475D01*
X139135Y-80474D01*
X139016Y-80524D01*
X138924Y-80615D01*
X138875Y-80735D01*
X138874Y-80864D01*
X138924Y-80983D01*
X139000Y-81059D01*
X139000Y-81617D01*
X138867Y-81750D01*
X138300Y-81750D01*
X138300Y-81550D01*
X138300Y-79850D01*
X136600Y-79850D01*
X136600Y-81550D01*
X138300Y-81550D01*
X138300Y-81750D01*
X136432Y-81750D01*
X136400Y-81717D01*
X136400Y-80859D01*
X136475Y-80784D01*
X136524Y-80664D01*
X136525Y-80535D01*
X136475Y-80416D01*
X136384Y-80324D01*
X136264Y-80275D01*
X136220Y-80275D01*
X136224Y-80264D01*
X136225Y-80135D01*
X136175Y-80016D01*
X136084Y-79924D01*
X135964Y-79875D01*
X135835Y-79874D01*
X135716Y-79924D01*
X135624Y-80015D01*
X135575Y-80135D01*
X135574Y-80264D01*
X135624Y-80383D01*
X135700Y-80459D01*
X135700Y-82649D01*
X135680Y-82649D01*
X135625Y-82672D01*
X135582Y-82714D01*
X135560Y-82770D01*
X135559Y-82829D01*
X135559Y-83300D01*
X135336Y-83300D01*
X135381Y-83255D01*
X135449Y-83089D01*
X135450Y-82910D01*
X135381Y-82745D01*
X135255Y-82618D01*
X135089Y-82550D01*
X134910Y-82549D01*
X134745Y-82618D01*
X134700Y-82663D01*
X134700Y-82336D01*
X134744Y-82381D01*
X134910Y-82449D01*
X135089Y-82450D01*
X135254Y-82381D01*
X135381Y-82255D01*
X135449Y-82089D01*
X135450Y-81910D01*
X135381Y-81745D01*
X135255Y-81618D01*
X135089Y-81550D01*
X134910Y-81549D01*
X134745Y-81618D01*
X134700Y-81663D01*
X134700Y-81336D01*
X134744Y-81381D01*
X134910Y-81449D01*
X135089Y-81450D01*
X135254Y-81381D01*
X135381Y-81255D01*
X135449Y-81089D01*
X135450Y-80910D01*
X135381Y-80745D01*
X135255Y-80618D01*
X135089Y-80550D01*
X134910Y-80549D01*
X134745Y-80618D01*
X134700Y-80663D01*
X134700Y-80336D01*
X134744Y-80381D01*
X134910Y-80449D01*
X135089Y-80450D01*
X135254Y-80381D01*
X135381Y-80255D01*
X135449Y-80089D01*
X135450Y-79910D01*
X135381Y-79745D01*
X135255Y-79618D01*
X135089Y-79550D01*
X134910Y-79549D01*
X134745Y-79618D01*
X134700Y-79663D01*
X134700Y-79450D01*
X134729Y-79450D01*
X135329Y-79450D01*
X135384Y-79427D01*
X135427Y-79385D01*
X135449Y-79329D01*
X135450Y-79270D01*
X135450Y-78700D01*
X135549Y-78700D01*
X135549Y-78729D01*
X135549Y-79329D01*
X135572Y-79384D01*
X135614Y-79427D01*
X135670Y-79449D01*
X135729Y-79450D01*
X136329Y-79450D01*
X136384Y-79427D01*
X136427Y-79385D01*
X136449Y-79329D01*
X136450Y-79270D01*
X136450Y-78700D01*
X139449Y-78700D01*
X139450Y-78887D01*
X139512Y-78950D01*
X139950Y-78950D01*
X139950Y-78942D01*
X140050Y-78942D01*
X140050Y-78950D01*
X140057Y-78950D01*
X140057Y-79050D01*
X140050Y-79050D01*
X140050Y-79487D01*
X140112Y-79550D01*
X140250Y-79550D01*
X140300Y-79549D01*
X140300Y-79663D01*
X140255Y-79618D01*
X140089Y-79550D01*
X139950Y-79549D01*
X139950Y-79487D01*
X139950Y-79050D01*
X139512Y-79050D01*
X139450Y-79112D01*
X139449Y-79349D01*
X139487Y-79441D01*
X139558Y-79511D01*
X139650Y-79549D01*
X139749Y-79550D01*
X139887Y-79550D01*
X139950Y-79487D01*
X139950Y-79549D01*
X139910Y-79549D01*
X139745Y-79618D01*
X139618Y-79744D01*
X139550Y-79910D01*
X139549Y-80089D01*
X139618Y-80254D01*
X139744Y-80381D01*
X139910Y-80449D01*
X140089Y-80450D01*
X140254Y-80381D01*
X140300Y-80336D01*
X140300Y-80663D01*
X140255Y-80618D01*
X140089Y-80550D01*
X139910Y-80549D01*
X139745Y-80618D01*
X139618Y-80744D01*
X139550Y-80910D01*
X139549Y-81089D01*
X139618Y-81254D01*
X139744Y-81381D01*
X139910Y-81449D01*
X140089Y-81450D01*
X140254Y-81381D01*
X140300Y-81336D01*
X140300Y-81663D01*
M02*
