G04 (created by PCBNEW (2013-jul-07)-stable) date Sun 14 Sep 2014 12:52:21 PM EDT*
%MOIN*%
G04 Gerber Fmt 3.4, Leading zero omitted, Abs format*
%FSLAX34Y34*%
G01*
G70*
G90*
G04 APERTURE LIST*
%ADD10C,0.00590551*%
%ADD11R,0.0590551X0.137795*%
%ADD12R,0.019685X0.019685*%
%ADD13C,0.0984252*%
%ADD14C,0.035*%
%ADD15C,0.01*%
%ADD16C,0.0019685*%
G04 APERTURE END LIST*
G54D10*
G54D11*
X118110Y-68208D03*
G54D12*
X118110Y-69586D03*
G54D13*
X118110Y-69881D03*
G54D14*
X118110Y-59251D03*
X127362Y-59645D03*
X127755Y-68897D03*
X127362Y-78149D03*
X118110Y-78543D03*
X108858Y-78149D03*
X108464Y-68897D03*
X108858Y-59645D03*
X117618Y-68799D03*
X117027Y-69389D03*
X117027Y-70374D03*
X117618Y-70964D03*
X118602Y-70964D03*
X119192Y-70374D03*
X119192Y-69389D03*
X118602Y-68799D03*
G54D15*
X118110Y-68208D02*
X118110Y-59251D01*
X127362Y-59645D02*
X127559Y-59842D01*
X127559Y-59842D02*
X127559Y-68700D01*
X127559Y-68700D02*
X127755Y-68897D01*
X127362Y-78149D02*
X126968Y-78543D01*
X126968Y-78543D02*
X118110Y-78543D01*
X108858Y-78149D02*
X108464Y-77755D01*
X108464Y-77755D02*
X108464Y-68897D01*
X108858Y-59645D02*
X109251Y-59251D01*
X109251Y-59251D02*
X118110Y-59251D01*
X117027Y-69389D02*
X117618Y-68799D01*
X117618Y-70964D02*
X117027Y-70374D01*
X119192Y-70374D02*
X118602Y-70964D01*
X118602Y-68799D02*
X119192Y-69389D01*
G54D10*
G36*
X127942Y-77558D02*
X127920Y-77787D01*
X127853Y-78007D01*
X127745Y-78209D01*
X127599Y-78387D01*
X127422Y-78532D01*
X127219Y-78641D01*
X127000Y-78707D01*
X126771Y-78730D01*
X119104Y-78730D01*
X119104Y-69784D01*
X119066Y-69593D01*
X118992Y-69412D01*
X118884Y-69250D01*
X118746Y-69112D01*
X118585Y-69003D01*
X118405Y-68927D01*
X118214Y-68888D01*
X118019Y-68887D01*
X117828Y-68923D01*
X117647Y-68996D01*
X117484Y-69103D01*
X117345Y-69239D01*
X117234Y-69400D01*
X117158Y-69579D01*
X117117Y-69770D01*
X117114Y-69965D01*
X117150Y-70157D01*
X117221Y-70338D01*
X117327Y-70502D01*
X117462Y-70642D01*
X117622Y-70753D01*
X117801Y-70831D01*
X117991Y-70873D01*
X118186Y-70877D01*
X118378Y-70843D01*
X118560Y-70773D01*
X118725Y-70669D01*
X118866Y-70534D01*
X118978Y-70375D01*
X119058Y-70197D01*
X119101Y-70007D01*
X119104Y-69784D01*
X119104Y-78730D01*
X109449Y-78730D01*
X109220Y-78707D01*
X109000Y-78641D01*
X108798Y-78532D01*
X108620Y-78387D01*
X108474Y-78209D01*
X108366Y-78007D01*
X108300Y-77787D01*
X108277Y-77558D01*
X108277Y-60236D01*
X108300Y-60007D01*
X108366Y-59788D01*
X108474Y-59585D01*
X108620Y-59408D01*
X108798Y-59262D01*
X109000Y-59154D01*
X109220Y-59087D01*
X109449Y-59064D01*
X126771Y-59064D01*
X127000Y-59087D01*
X127219Y-59154D01*
X127422Y-59262D01*
X127599Y-59408D01*
X127745Y-59585D01*
X127853Y-59788D01*
X127920Y-60007D01*
X127942Y-60236D01*
X127942Y-77558D01*
X127942Y-77558D01*
G37*
G54D16*
X127942Y-77558D02*
X127920Y-77787D01*
X127853Y-78007D01*
X127745Y-78209D01*
X127599Y-78387D01*
X127422Y-78532D01*
X127219Y-78641D01*
X127000Y-78707D01*
X126771Y-78730D01*
X119104Y-78730D01*
X119104Y-69784D01*
X119066Y-69593D01*
X118992Y-69412D01*
X118884Y-69250D01*
X118746Y-69112D01*
X118585Y-69003D01*
X118405Y-68927D01*
X118214Y-68888D01*
X118019Y-68887D01*
X117828Y-68923D01*
X117647Y-68996D01*
X117484Y-69103D01*
X117345Y-69239D01*
X117234Y-69400D01*
X117158Y-69579D01*
X117117Y-69770D01*
X117114Y-69965D01*
X117150Y-70157D01*
X117221Y-70338D01*
X117327Y-70502D01*
X117462Y-70642D01*
X117622Y-70753D01*
X117801Y-70831D01*
X117991Y-70873D01*
X118186Y-70877D01*
X118378Y-70843D01*
X118560Y-70773D01*
X118725Y-70669D01*
X118866Y-70534D01*
X118978Y-70375D01*
X119058Y-70197D01*
X119101Y-70007D01*
X119104Y-69784D01*
X119104Y-78730D01*
X109449Y-78730D01*
X109220Y-78707D01*
X109000Y-78641D01*
X108798Y-78532D01*
X108620Y-78387D01*
X108474Y-78209D01*
X108366Y-78007D01*
X108300Y-77787D01*
X108277Y-77558D01*
X108277Y-60236D01*
X108300Y-60007D01*
X108366Y-59788D01*
X108474Y-59585D01*
X108620Y-59408D01*
X108798Y-59262D01*
X109000Y-59154D01*
X109220Y-59087D01*
X109449Y-59064D01*
X126771Y-59064D01*
X127000Y-59087D01*
X127219Y-59154D01*
X127422Y-59262D01*
X127599Y-59408D01*
X127745Y-59585D01*
X127853Y-59788D01*
X127920Y-60007D01*
X127942Y-60236D01*
X127942Y-77558D01*
M02*
