G04 (created by PCBNEW (2013-jul-07)-stable) date Sun 14 Sep 2014 12:52:21 PM EDT*
%MOIN*%
G04 Gerber Fmt 3.4, Leading zero omitted, Abs format*
%FSLAX34Y34*%
G01*
G70*
G90*
G04 APERTURE LIST*
%ADD10C,0.00590551*%
%ADD11C,0.00393701*%
%ADD12C,0.00984252*%
%ADD13C,0.0787402*%
%ADD14C,0.019685*%
%ADD15C,0.0393701*%
G04 APERTURE END LIST*
G54D10*
G54D11*
X118110Y-57283D02*
X118110Y-57874D01*
X106496Y-68897D02*
X107086Y-68897D01*
X118110Y-80511D02*
X118110Y-79921D01*
X129724Y-68897D02*
X129133Y-68897D01*
G54D12*
X125984Y-61023D02*
G75*
G03X125984Y-61023I-7874J-7874D01*
G74*
G01*
G54D13*
X122440Y-64566D02*
G75*
G03X122440Y-64566I-4330J-4330D01*
G74*
G01*
G54D14*
X124803Y-62204D02*
G75*
G03X124803Y-62204I-6692J-6692D01*
G74*
G01*
G54D15*
X123622Y-63385D02*
G75*
G03X123622Y-63385I-5511J-5511D01*
G74*
G01*
G54D10*
X114566Y-65354D02*
X120472Y-65354D01*
X120472Y-65354D02*
X121653Y-66535D01*
X121653Y-66535D02*
X121653Y-72440D01*
X121653Y-72440D02*
X115748Y-72440D01*
X115748Y-72440D02*
X114566Y-71259D01*
X114566Y-71259D02*
X114566Y-65354D01*
X113188Y-73031D02*
X113188Y-64763D01*
X122244Y-73818D02*
X113976Y-73818D01*
X123031Y-64763D02*
X123031Y-73031D01*
X113976Y-63976D02*
X122244Y-63976D01*
X113976Y-63976D02*
G75*
G03X113188Y-64763I0J-787D01*
G74*
G01*
X113188Y-73031D02*
G75*
G03X113976Y-73818I787J0D01*
G74*
G01*
X122244Y-73818D02*
G75*
G03X123031Y-73031I0J787D01*
G74*
G01*
X123031Y-64763D02*
G75*
G03X122244Y-63976I-787J0D01*
G74*
G01*
X115260Y-72994D02*
X115354Y-73387D01*
X115429Y-73106D01*
X115504Y-73387D01*
X115598Y-72994D01*
X115935Y-73387D02*
X115748Y-73387D01*
X115748Y-72994D01*
X116066Y-73387D02*
X116066Y-72994D01*
X116216Y-72994D01*
X116254Y-73012D01*
X116272Y-73031D01*
X116291Y-73068D01*
X116291Y-73125D01*
X116272Y-73162D01*
X116254Y-73181D01*
X116216Y-73200D01*
X116066Y-73200D01*
X116460Y-73350D02*
X116479Y-73368D01*
X116460Y-73387D01*
X116441Y-73368D01*
X116460Y-73350D01*
X116460Y-73387D01*
X116629Y-73031D02*
X116647Y-73012D01*
X116685Y-72994D01*
X116779Y-72994D01*
X116816Y-73012D01*
X116835Y-73031D01*
X116854Y-73068D01*
X116854Y-73106D01*
X116835Y-73162D01*
X116610Y-73387D01*
X116854Y-73387D01*
X117191Y-73125D02*
X117191Y-73387D01*
X117097Y-72975D02*
X117004Y-73256D01*
X117247Y-73256D01*
X117585Y-72994D02*
X117397Y-72994D01*
X117379Y-73181D01*
X117397Y-73162D01*
X117435Y-73143D01*
X117529Y-73143D01*
X117566Y-73162D01*
X117585Y-73181D01*
X117604Y-73218D01*
X117604Y-73312D01*
X117585Y-73350D01*
X117566Y-73368D01*
X117529Y-73387D01*
X117435Y-73387D01*
X117397Y-73368D01*
X117379Y-73350D01*
X117847Y-72994D02*
X117885Y-72994D01*
X117922Y-73012D01*
X117941Y-73031D01*
X117960Y-73068D01*
X117979Y-73143D01*
X117979Y-73237D01*
X117960Y-73312D01*
X117941Y-73350D01*
X117922Y-73368D01*
X117885Y-73387D01*
X117847Y-73387D01*
X117810Y-73368D01*
X117791Y-73350D01*
X117772Y-73312D01*
X117754Y-73237D01*
X117754Y-73143D01*
X117772Y-73068D01*
X117791Y-73031D01*
X117810Y-73012D01*
X117847Y-72994D01*
X118147Y-73350D02*
X118166Y-73368D01*
X118147Y-73387D01*
X118128Y-73368D01*
X118147Y-73350D01*
X118147Y-73387D01*
X118316Y-73031D02*
X118335Y-73012D01*
X118372Y-72994D01*
X118466Y-72994D01*
X118503Y-73012D01*
X118522Y-73031D01*
X118541Y-73068D01*
X118541Y-73106D01*
X118522Y-73162D01*
X118297Y-73387D01*
X118541Y-73387D01*
X118897Y-72994D02*
X118710Y-72994D01*
X118691Y-73181D01*
X118710Y-73162D01*
X118747Y-73143D01*
X118841Y-73143D01*
X118878Y-73162D01*
X118897Y-73181D01*
X118916Y-73218D01*
X118916Y-73312D01*
X118897Y-73350D01*
X118878Y-73368D01*
X118841Y-73387D01*
X118747Y-73387D01*
X118710Y-73368D01*
X118691Y-73350D01*
X119085Y-73350D02*
X119103Y-73368D01*
X119085Y-73387D01*
X119066Y-73368D01*
X119085Y-73350D01*
X119085Y-73387D01*
X119441Y-73125D02*
X119441Y-73387D01*
X119347Y-72975D02*
X119253Y-73256D01*
X119497Y-73256D01*
X119647Y-73350D02*
X119666Y-73368D01*
X119647Y-73387D01*
X119628Y-73368D01*
X119647Y-73350D01*
X119647Y-73387D01*
X119816Y-73275D02*
X120003Y-73275D01*
X119778Y-73387D02*
X119910Y-72994D01*
X120041Y-73387D01*
X120172Y-73350D02*
X120191Y-73368D01*
X120172Y-73387D01*
X120153Y-73368D01*
X120172Y-73350D01*
X120172Y-73387D01*
X120434Y-72994D02*
X120472Y-72994D01*
X120509Y-73012D01*
X120528Y-73031D01*
X120547Y-73068D01*
X120566Y-73143D01*
X120566Y-73237D01*
X120547Y-73312D01*
X120528Y-73350D01*
X120509Y-73368D01*
X120472Y-73387D01*
X120434Y-73387D01*
X120397Y-73368D01*
X120378Y-73350D01*
X120359Y-73312D01*
X120341Y-73237D01*
X120341Y-73143D01*
X120359Y-73068D01*
X120378Y-73031D01*
X120397Y-73012D01*
X120434Y-72994D01*
X120716Y-73031D02*
X120734Y-73012D01*
X120772Y-72994D01*
X120866Y-72994D01*
X120903Y-73012D01*
X120922Y-73031D01*
X120941Y-73068D01*
X120941Y-73106D01*
X120922Y-73162D01*
X120697Y-73387D01*
X120941Y-73387D01*
M02*
