G04 (created by PCBNEW (2013-jul-07)-stable) date Sun 14 Sep 2014 12:52:21 PM EDT*
%MOIN*%
G04 Gerber Fmt 3.4, Leading zero omitted, Abs format*
%FSLAX34Y34*%
G01*
G70*
G90*
G04 APERTURE LIST*
%ADD10C,0.00590551*%
%ADD11C,0.00393701*%
G04 APERTURE END LIST*
G54D10*
G54D11*
X116141Y-79133D02*
X116141Y-79921D01*
X115944Y-80118D02*
G75*
G03X116141Y-79921I0J196D01*
G74*
G01*
X115748Y-79921D02*
G75*
G03X115944Y-80118I196J0D01*
G74*
G01*
X116141Y-79133D02*
G75*
G03X115944Y-78937I-196J0D01*
G74*
G01*
X115944Y-78937D02*
G75*
G03X115748Y-79133I0J-196D01*
G74*
G01*
X110236Y-79921D02*
X110236Y-79133D01*
X110433Y-80118D02*
G75*
G03X110629Y-79921I0J196D01*
G74*
G01*
X110236Y-79921D02*
G75*
G03X110433Y-80118I196J0D01*
G74*
G01*
X110433Y-78937D02*
G75*
G03X110236Y-79133I0J-196D01*
G74*
G01*
X110629Y-79133D02*
G75*
G03X110433Y-78937I-196J0D01*
G74*
G01*
X110629Y-79133D02*
G75*
G03X110433Y-78937I-196J0D01*
G74*
G01*
X115748Y-79921D02*
X110629Y-79921D01*
X110629Y-79133D02*
X115748Y-79133D01*
X120472Y-57874D02*
X125590Y-57874D01*
X125590Y-58661D02*
X120472Y-58661D01*
X120472Y-57874D02*
G75*
G03X120275Y-57677I-196J0D01*
G74*
G01*
X120472Y-57874D02*
G75*
G03X120275Y-57677I-196J0D01*
G74*
G01*
X120275Y-57677D02*
G75*
G03X120078Y-57874I0J-196D01*
G74*
G01*
X120078Y-58661D02*
G75*
G03X120275Y-58858I196J0D01*
G74*
G01*
X120275Y-58858D02*
G75*
G03X120472Y-58661I0J196D01*
G74*
G01*
X120078Y-58661D02*
X120078Y-57874D01*
X125787Y-57677D02*
G75*
G03X125590Y-57874I0J-196D01*
G74*
G01*
X125984Y-57874D02*
G75*
G03X125787Y-57677I-196J0D01*
G74*
G01*
X125590Y-58661D02*
G75*
G03X125787Y-58858I196J0D01*
G74*
G01*
X125787Y-58858D02*
G75*
G03X125984Y-58661I0J196D01*
G74*
G01*
X125984Y-57874D02*
X125984Y-58661D01*
X107874Y-71259D02*
X107874Y-76377D01*
X107086Y-76377D02*
X107086Y-71259D01*
X107874Y-71259D02*
G75*
G03X108070Y-71062I0J196D01*
G74*
G01*
X107874Y-71259D02*
G75*
G03X108070Y-71062I0J196D01*
G74*
G01*
X108070Y-71062D02*
G75*
G03X107874Y-70866I-196J0D01*
G74*
G01*
X107086Y-70866D02*
G75*
G03X106889Y-71062I0J-196D01*
G74*
G01*
X106889Y-71062D02*
G75*
G03X107086Y-71259I196J0D01*
G74*
G01*
X107086Y-70866D02*
X107874Y-70866D01*
X108070Y-76574D02*
G75*
G03X107874Y-76377I-196J0D01*
G74*
G01*
X107874Y-76771D02*
G75*
G03X108070Y-76574I0J196D01*
G74*
G01*
X107086Y-76377D02*
G75*
G03X106889Y-76574I0J-196D01*
G74*
G01*
X106889Y-76574D02*
G75*
G03X107086Y-76771I196J0D01*
G74*
G01*
X107874Y-76771D02*
X107086Y-76771D01*
X107874Y-66929D02*
X107086Y-66929D01*
X106889Y-66732D02*
G75*
G03X107086Y-66929I196J0D01*
G74*
G01*
X107086Y-66535D02*
G75*
G03X106889Y-66732I0J-196D01*
G74*
G01*
X107874Y-66929D02*
G75*
G03X108070Y-66732I0J196D01*
G74*
G01*
X108070Y-66732D02*
G75*
G03X107874Y-66535I-196J0D01*
G74*
G01*
X107086Y-61023D02*
X107874Y-61023D01*
X106889Y-61220D02*
G75*
G03X107086Y-61417I196J0D01*
G74*
G01*
X107086Y-61023D02*
G75*
G03X106889Y-61220I0J-196D01*
G74*
G01*
X108070Y-61220D02*
G75*
G03X107874Y-61023I-196J0D01*
G74*
G01*
X107874Y-61417D02*
G75*
G03X108070Y-61220I0J196D01*
G74*
G01*
X107874Y-61417D02*
G75*
G03X108070Y-61220I0J196D01*
G74*
G01*
X107086Y-66535D02*
X107086Y-61417D01*
X107874Y-61417D02*
X107874Y-66535D01*
X129133Y-71259D02*
X129133Y-76377D01*
X128346Y-76377D02*
X128346Y-71259D01*
X129133Y-71259D02*
G75*
G03X129330Y-71062I0J196D01*
G74*
G01*
X129133Y-71259D02*
G75*
G03X129330Y-71062I0J196D01*
G74*
G01*
X129330Y-71062D02*
G75*
G03X129133Y-70866I-196J0D01*
G74*
G01*
X128346Y-70866D02*
G75*
G03X128149Y-71062I0J-196D01*
G74*
G01*
X128149Y-71062D02*
G75*
G03X128346Y-71259I196J0D01*
G74*
G01*
X128346Y-70866D02*
X129133Y-70866D01*
X129330Y-76574D02*
G75*
G03X129133Y-76377I-196J0D01*
G74*
G01*
X129133Y-76771D02*
G75*
G03X129330Y-76574I0J196D01*
G74*
G01*
X128346Y-76377D02*
G75*
G03X128149Y-76574I0J-196D01*
G74*
G01*
X128149Y-76574D02*
G75*
G03X128346Y-76771I196J0D01*
G74*
G01*
X129133Y-76771D02*
X128346Y-76771D01*
X129133Y-61417D02*
X129133Y-66535D01*
X128346Y-66535D02*
X128346Y-61417D01*
X129133Y-61417D02*
G75*
G03X129330Y-61220I0J196D01*
G74*
G01*
X129133Y-61417D02*
G75*
G03X129330Y-61220I0J196D01*
G74*
G01*
X129330Y-61220D02*
G75*
G03X129133Y-61023I-196J0D01*
G74*
G01*
X128346Y-61023D02*
G75*
G03X128149Y-61220I0J-196D01*
G74*
G01*
X128149Y-61220D02*
G75*
G03X128346Y-61417I196J0D01*
G74*
G01*
X128346Y-61023D02*
X129133Y-61023D01*
X129330Y-66732D02*
G75*
G03X129133Y-66535I-196J0D01*
G74*
G01*
X129133Y-66929D02*
G75*
G03X129330Y-66732I0J196D01*
G74*
G01*
X128346Y-66535D02*
G75*
G03X128149Y-66732I0J-196D01*
G74*
G01*
X128149Y-66732D02*
G75*
G03X128346Y-66929I196J0D01*
G74*
G01*
X129133Y-66929D02*
X128346Y-66929D01*
X120472Y-79133D02*
X125590Y-79133D01*
X125590Y-79921D02*
X120472Y-79921D01*
X120472Y-79133D02*
G75*
G03X120275Y-78937I-196J0D01*
G74*
G01*
X120472Y-79133D02*
G75*
G03X120275Y-78937I-196J0D01*
G74*
G01*
X120275Y-78937D02*
G75*
G03X120078Y-79133I0J-196D01*
G74*
G01*
X120078Y-79921D02*
G75*
G03X120275Y-80118I196J0D01*
G74*
G01*
X120275Y-80118D02*
G75*
G03X120472Y-79921I0J196D01*
G74*
G01*
X120078Y-79921D02*
X120078Y-79133D01*
X125787Y-78937D02*
G75*
G03X125590Y-79133I0J-196D01*
G74*
G01*
X125984Y-79133D02*
G75*
G03X125787Y-78937I-196J0D01*
G74*
G01*
X125590Y-79921D02*
G75*
G03X125787Y-80118I196J0D01*
G74*
G01*
X125787Y-80118D02*
G75*
G03X125984Y-79921I0J196D01*
G74*
G01*
X125984Y-79133D02*
X125984Y-79921D01*
X116141Y-57874D02*
X116141Y-58661D01*
X115944Y-58858D02*
G75*
G03X116141Y-58661I0J196D01*
G74*
G01*
X115748Y-58661D02*
G75*
G03X115944Y-58858I196J0D01*
G74*
G01*
X116141Y-57874D02*
G75*
G03X115944Y-57677I-196J0D01*
G74*
G01*
X115944Y-57677D02*
G75*
G03X115748Y-57874I0J-196D01*
G74*
G01*
X110236Y-58661D02*
X110236Y-57874D01*
X110433Y-58858D02*
G75*
G03X110629Y-58661I0J196D01*
G74*
G01*
X110236Y-58661D02*
G75*
G03X110433Y-58858I196J0D01*
G74*
G01*
X110433Y-57677D02*
G75*
G03X110236Y-57874I0J-196D01*
G74*
G01*
X110629Y-57874D02*
G75*
G03X110433Y-57677I-196J0D01*
G74*
G01*
X110629Y-57874D02*
G75*
G03X110433Y-57677I-196J0D01*
G74*
G01*
X118503Y-79527D02*
G75*
G03X118503Y-79527I-393J0D01*
G74*
G01*
X107874Y-68897D02*
G75*
G03X107874Y-68897I-393J0D01*
G74*
G01*
X118503Y-58267D02*
G75*
G03X118503Y-58267I-393J0D01*
G74*
G01*
X129133Y-68897D02*
G75*
G03X129133Y-68897I-393J0D01*
G74*
G01*
X115748Y-58661D02*
X110629Y-58661D01*
X110629Y-57874D02*
X115748Y-57874D01*
X106496Y-58464D02*
X106496Y-79330D01*
X128543Y-57283D02*
X107677Y-57283D01*
X129724Y-79330D02*
X129724Y-58464D01*
X107677Y-80511D02*
X128543Y-80511D01*
X106496Y-79330D02*
G75*
G03X107677Y-80511I1181J0D01*
G74*
G01*
X128543Y-80511D02*
G75*
G03X129724Y-79330I0J1181D01*
G74*
G01*
X129724Y-58464D02*
G75*
G03X128543Y-57283I-1181J0D01*
G74*
G01*
X107677Y-57283D02*
G75*
G03X106496Y-58464I0J-1181D01*
G74*
G01*
X108267Y-58464D02*
G75*
G03X108267Y-58464I-590J0D01*
G74*
G01*
X108267Y-79330D02*
G75*
G03X108267Y-79330I-590J0D01*
G74*
G01*
X129133Y-79330D02*
G75*
G03X129133Y-79330I-590J0D01*
G74*
G01*
X129133Y-58464D02*
G75*
G03X129133Y-58464I-590J0D01*
G74*
G01*
M02*
