G04 (created by PCBNEW (2013-jul-07)-stable) date Sun 14 Sep 2014 12:52:21 PM EDT*
%MOIN*%
G04 Gerber Fmt 3.4, Leading zero omitted, Abs format*
%FSLAX34Y34*%
G01*
G70*
G90*
G04 APERTURE LIST*
%ADD10C,0.00590551*%
%ADD11R,0.019685X0.019685*%
%ADD12C,0.035*%
%ADD13C,0.01*%
%ADD14C,0.0019685*%
G04 APERTURE END LIST*
G54D10*
G54D11*
X118110Y-68700D03*
G54D12*
X118110Y-59251D03*
X127362Y-59645D03*
X127755Y-68897D03*
X127362Y-78149D03*
X118110Y-78543D03*
X108858Y-78149D03*
X108464Y-68897D03*
X108858Y-59645D03*
X117618Y-68799D03*
X117027Y-69389D03*
X117027Y-70374D03*
X117618Y-70964D03*
X118602Y-70964D03*
X119192Y-70374D03*
X119192Y-69389D03*
X118602Y-68799D03*
G54D13*
X118110Y-59251D02*
X118503Y-59645D01*
X118503Y-59645D02*
X127362Y-59645D01*
X127755Y-68897D02*
X127362Y-69291D01*
X127362Y-69291D02*
X127362Y-78149D01*
X118110Y-78543D02*
X117716Y-78149D01*
X117716Y-78149D02*
X108858Y-78149D01*
X108464Y-68897D02*
X108858Y-68503D01*
X108858Y-68503D02*
X108858Y-59645D01*
X118110Y-68700D02*
X118503Y-68700D01*
X117716Y-68700D02*
X118110Y-68700D01*
X117618Y-68799D02*
X117716Y-68700D01*
X117027Y-70374D02*
X117027Y-69389D01*
X118602Y-70964D02*
X117618Y-70964D01*
X119192Y-69389D02*
X119192Y-70374D01*
X118503Y-68700D02*
X118602Y-68799D01*
G54D10*
G36*
X127942Y-77558D02*
X127920Y-77787D01*
X127853Y-78007D01*
X127745Y-78209D01*
X127599Y-78387D01*
X127422Y-78532D01*
X127219Y-78641D01*
X127000Y-78707D01*
X126771Y-78730D01*
X118710Y-78730D01*
X118710Y-69823D01*
X118687Y-69707D01*
X118642Y-69598D01*
X118577Y-69500D01*
X118494Y-69417D01*
X118397Y-69351D01*
X118288Y-69305D01*
X118173Y-69281D01*
X118055Y-69281D01*
X117939Y-69303D01*
X117830Y-69347D01*
X117732Y-69411D01*
X117648Y-69494D01*
X117581Y-69591D01*
X117535Y-69699D01*
X117510Y-69814D01*
X117509Y-69932D01*
X117530Y-70048D01*
X117573Y-70157D01*
X117637Y-70256D01*
X117719Y-70341D01*
X117815Y-70408D01*
X117923Y-70455D01*
X118038Y-70480D01*
X118156Y-70483D01*
X118272Y-70462D01*
X118382Y-70420D01*
X118481Y-70357D01*
X118566Y-70276D01*
X118634Y-70179D01*
X118682Y-70072D01*
X118708Y-69957D01*
X118710Y-69823D01*
X118710Y-78730D01*
X109449Y-78730D01*
X109220Y-78707D01*
X109000Y-78641D01*
X108798Y-78532D01*
X108620Y-78387D01*
X108474Y-78209D01*
X108366Y-78007D01*
X108300Y-77787D01*
X108277Y-77558D01*
X108277Y-60236D01*
X108300Y-60007D01*
X108366Y-59788D01*
X108474Y-59585D01*
X108620Y-59408D01*
X108798Y-59262D01*
X109000Y-59154D01*
X109220Y-59087D01*
X109449Y-59064D01*
X126771Y-59064D01*
X127000Y-59087D01*
X127219Y-59154D01*
X127422Y-59262D01*
X127599Y-59408D01*
X127745Y-59585D01*
X127853Y-59788D01*
X127920Y-60007D01*
X127942Y-60236D01*
X127942Y-77558D01*
X127942Y-77558D01*
G37*
G54D14*
X127942Y-77558D02*
X127920Y-77787D01*
X127853Y-78007D01*
X127745Y-78209D01*
X127599Y-78387D01*
X127422Y-78532D01*
X127219Y-78641D01*
X127000Y-78707D01*
X126771Y-78730D01*
X118710Y-78730D01*
X118710Y-69823D01*
X118687Y-69707D01*
X118642Y-69598D01*
X118577Y-69500D01*
X118494Y-69417D01*
X118397Y-69351D01*
X118288Y-69305D01*
X118173Y-69281D01*
X118055Y-69281D01*
X117939Y-69303D01*
X117830Y-69347D01*
X117732Y-69411D01*
X117648Y-69494D01*
X117581Y-69591D01*
X117535Y-69699D01*
X117510Y-69814D01*
X117509Y-69932D01*
X117530Y-70048D01*
X117573Y-70157D01*
X117637Y-70256D01*
X117719Y-70341D01*
X117815Y-70408D01*
X117923Y-70455D01*
X118038Y-70480D01*
X118156Y-70483D01*
X118272Y-70462D01*
X118382Y-70420D01*
X118481Y-70357D01*
X118566Y-70276D01*
X118634Y-70179D01*
X118682Y-70072D01*
X118708Y-69957D01*
X118710Y-69823D01*
X118710Y-78730D01*
X109449Y-78730D01*
X109220Y-78707D01*
X109000Y-78641D01*
X108798Y-78532D01*
X108620Y-78387D01*
X108474Y-78209D01*
X108366Y-78007D01*
X108300Y-77787D01*
X108277Y-77558D01*
X108277Y-60236D01*
X108300Y-60007D01*
X108366Y-59788D01*
X108474Y-59585D01*
X108620Y-59408D01*
X108798Y-59262D01*
X109000Y-59154D01*
X109220Y-59087D01*
X109449Y-59064D01*
X126771Y-59064D01*
X127000Y-59087D01*
X127219Y-59154D01*
X127422Y-59262D01*
X127599Y-59408D01*
X127745Y-59585D01*
X127853Y-59788D01*
X127920Y-60007D01*
X127942Y-60236D01*
X127942Y-77558D01*
M02*
