G04 (created by PCBNEW (2013-jul-07)-stable) date Sun 14 Sep 2014 12:52:21 PM EDT*
%MOIN*%
G04 Gerber Fmt 3.4, Leading zero omitted, Abs format*
%FSLAX34Y34*%
G01*
G70*
G90*
G04 APERTURE LIST*
%ADD10C,0.00590551*%
%ADD11C,0.00393701*%
%ADD12C,0.015748*%
%ADD13C,0.011811*%
G04 APERTURE END LIST*
G54D10*
G54D11*
X119291Y-70078D02*
X116929Y-67716D01*
X116929Y-70078D02*
X119291Y-67716D01*
X106496Y-68897D02*
X107086Y-68897D01*
X118110Y-80511D02*
X118110Y-79921D01*
X129724Y-68897D02*
X129133Y-68897D01*
X118110Y-57283D02*
X118110Y-57874D01*
G54D12*
X126338Y-60161D02*
X125888Y-60161D01*
X126211Y-60948D02*
X126113Y-60161D01*
X125386Y-60948D02*
X125335Y-60536D01*
X125363Y-60461D01*
X125433Y-60423D01*
X125583Y-60423D01*
X125663Y-60461D01*
X125381Y-60911D02*
X125461Y-60948D01*
X125649Y-60948D01*
X125719Y-60911D01*
X125747Y-60836D01*
X125738Y-60761D01*
X125691Y-60686D01*
X125611Y-60648D01*
X125424Y-60648D01*
X125344Y-60611D01*
X124899Y-60948D02*
X124969Y-60911D01*
X125002Y-60873D01*
X125030Y-60798D01*
X125002Y-60573D01*
X124955Y-60498D01*
X124913Y-60461D01*
X124833Y-60423D01*
X124721Y-60423D01*
X124650Y-60461D01*
X124618Y-60498D01*
X124589Y-60573D01*
X124618Y-60798D01*
X124664Y-60873D01*
X124707Y-60911D01*
X124786Y-60948D01*
X124899Y-60948D01*
X123896Y-60423D02*
X123975Y-61061D01*
X124022Y-61136D01*
X124064Y-61173D01*
X124144Y-61211D01*
X124257Y-61211D01*
X124327Y-61173D01*
X123957Y-60911D02*
X124036Y-60948D01*
X124186Y-60948D01*
X124257Y-60911D01*
X124289Y-60873D01*
X124318Y-60798D01*
X124289Y-60573D01*
X124243Y-60498D01*
X124200Y-60461D01*
X124121Y-60423D01*
X123971Y-60423D01*
X123900Y-60461D01*
X123474Y-60948D02*
X123544Y-60911D01*
X123572Y-60836D01*
X123488Y-60161D01*
X122836Y-60948D02*
X122785Y-60536D01*
X122813Y-60461D01*
X122883Y-60423D01*
X123033Y-60423D01*
X123113Y-60461D01*
X122832Y-60911D02*
X122911Y-60948D01*
X123099Y-60948D01*
X123169Y-60911D01*
X123197Y-60836D01*
X123188Y-60761D01*
X123141Y-60686D01*
X123061Y-60648D01*
X122874Y-60648D01*
X122794Y-60611D01*
X122494Y-60911D02*
X122424Y-60948D01*
X122274Y-60948D01*
X122194Y-60911D01*
X122148Y-60836D01*
X122143Y-60798D01*
X122171Y-60723D01*
X122241Y-60686D01*
X122354Y-60686D01*
X122424Y-60648D01*
X122452Y-60573D01*
X122447Y-60536D01*
X122401Y-60461D01*
X122321Y-60423D01*
X122208Y-60423D01*
X122138Y-60461D01*
X121201Y-60161D02*
X121112Y-60948D01*
X120891Y-60386D01*
X120812Y-60948D01*
X120526Y-60161D01*
X119949Y-60948D02*
X120324Y-60948D01*
X120226Y-60161D01*
X119687Y-60948D02*
X119588Y-60161D01*
X119288Y-60161D01*
X119218Y-60198D01*
X119185Y-60236D01*
X119157Y-60311D01*
X119171Y-60423D01*
X119218Y-60498D01*
X119260Y-60536D01*
X119340Y-60573D01*
X119640Y-60573D01*
X118890Y-60873D02*
X118857Y-60911D01*
X118899Y-60948D01*
X118932Y-60911D01*
X118890Y-60873D01*
X118899Y-60948D01*
X118473Y-60236D02*
X118431Y-60198D01*
X118351Y-60161D01*
X118164Y-60161D01*
X118093Y-60198D01*
X118061Y-60236D01*
X118032Y-60311D01*
X118042Y-60386D01*
X118093Y-60498D01*
X118600Y-60948D01*
X118112Y-60948D01*
X117372Y-60423D02*
X117437Y-60948D01*
X117522Y-60123D02*
X117779Y-60686D01*
X117292Y-60686D01*
X116551Y-60161D02*
X116926Y-60161D01*
X117011Y-60536D01*
X116968Y-60498D01*
X116889Y-60461D01*
X116701Y-60461D01*
X116631Y-60498D01*
X116598Y-60536D01*
X116570Y-60611D01*
X116594Y-60798D01*
X116640Y-60873D01*
X116683Y-60911D01*
X116762Y-60948D01*
X116950Y-60948D01*
X117020Y-60911D01*
X117053Y-60873D01*
X116026Y-60161D02*
X115951Y-60161D01*
X115881Y-60198D01*
X115848Y-60236D01*
X115820Y-60311D01*
X115801Y-60461D01*
X115825Y-60648D01*
X115881Y-60798D01*
X115928Y-60873D01*
X115970Y-60911D01*
X116050Y-60948D01*
X116125Y-60948D01*
X116195Y-60911D01*
X116228Y-60873D01*
X116256Y-60798D01*
X116275Y-60648D01*
X116251Y-60461D01*
X116195Y-60311D01*
X116148Y-60236D01*
X116106Y-60198D01*
X116026Y-60161D01*
X115516Y-60873D02*
X115483Y-60911D01*
X115525Y-60948D01*
X115558Y-60911D01*
X115516Y-60873D01*
X115525Y-60948D01*
X115098Y-60236D02*
X115056Y-60198D01*
X114977Y-60161D01*
X114789Y-60161D01*
X114719Y-60198D01*
X114686Y-60236D01*
X114658Y-60311D01*
X114667Y-60386D01*
X114719Y-60498D01*
X115225Y-60948D01*
X114738Y-60948D01*
X113927Y-60161D02*
X114302Y-60161D01*
X114386Y-60536D01*
X114344Y-60498D01*
X114264Y-60461D01*
X114077Y-60461D01*
X114006Y-60498D01*
X113974Y-60536D01*
X113945Y-60611D01*
X113969Y-60798D01*
X114016Y-60873D01*
X114058Y-60911D01*
X114138Y-60948D01*
X114325Y-60948D01*
X114395Y-60911D01*
X114428Y-60873D01*
X113641Y-60873D02*
X113608Y-60911D01*
X113650Y-60948D01*
X113683Y-60911D01*
X113641Y-60873D01*
X113650Y-60948D01*
X112872Y-60423D02*
X112938Y-60948D01*
X113022Y-60123D02*
X113280Y-60686D01*
X112792Y-60686D01*
X112516Y-60873D02*
X112483Y-60911D01*
X112525Y-60948D01*
X112558Y-60911D01*
X112516Y-60873D01*
X112525Y-60948D01*
X112160Y-60723D02*
X111785Y-60723D01*
X112263Y-60948D02*
X111902Y-60161D01*
X111738Y-60948D01*
X111466Y-60873D02*
X111433Y-60911D01*
X111475Y-60948D01*
X111508Y-60911D01*
X111466Y-60873D01*
X111475Y-60948D01*
X110852Y-60161D02*
X110777Y-60161D01*
X110707Y-60198D01*
X110674Y-60236D01*
X110646Y-60311D01*
X110627Y-60461D01*
X110651Y-60648D01*
X110707Y-60798D01*
X110754Y-60873D01*
X110796Y-60911D01*
X110875Y-60948D01*
X110950Y-60948D01*
X111021Y-60911D01*
X111054Y-60873D01*
X111082Y-60798D01*
X111100Y-60648D01*
X111077Y-60461D01*
X111021Y-60311D01*
X110974Y-60236D01*
X110932Y-60198D01*
X110852Y-60161D01*
X110299Y-60236D02*
X110257Y-60198D01*
X110177Y-60161D01*
X109990Y-60161D01*
X109919Y-60198D01*
X109887Y-60236D01*
X109858Y-60311D01*
X109868Y-60386D01*
X109919Y-60498D01*
X110426Y-60948D01*
X109938Y-60948D01*
G54D13*
X116422Y-69980D02*
X116394Y-69952D01*
X116338Y-69924D01*
X116197Y-69924D01*
X116141Y-69952D01*
X116113Y-69980D01*
X116085Y-70036D01*
X116085Y-70092D01*
X116113Y-70177D01*
X116451Y-70514D01*
X116085Y-70514D01*
X115579Y-70120D02*
X115579Y-70514D01*
X115719Y-69895D02*
X115860Y-70317D01*
X115494Y-70317D01*
X115185Y-70177D02*
X115241Y-70149D01*
X115269Y-70120D01*
X115298Y-70064D01*
X115298Y-70036D01*
X115269Y-69980D01*
X115241Y-69952D01*
X115185Y-69924D01*
X115073Y-69924D01*
X115016Y-69952D01*
X114988Y-69980D01*
X114960Y-70036D01*
X114960Y-70064D01*
X114988Y-70120D01*
X115016Y-70149D01*
X115073Y-70177D01*
X115185Y-70177D01*
X115241Y-70205D01*
X115269Y-70233D01*
X115298Y-70289D01*
X115298Y-70402D01*
X115269Y-70458D01*
X115241Y-70486D01*
X115185Y-70514D01*
X115073Y-70514D01*
X115016Y-70486D01*
X114988Y-70458D01*
X114960Y-70402D01*
X114960Y-70289D01*
X114988Y-70233D01*
X115016Y-70205D01*
X115073Y-70177D01*
X114735Y-69980D02*
X114707Y-69952D01*
X114651Y-69924D01*
X114510Y-69924D01*
X114454Y-69952D01*
X114426Y-69980D01*
X114398Y-70036D01*
X114398Y-70092D01*
X114426Y-70177D01*
X114763Y-70514D01*
X114398Y-70514D01*
X113695Y-70514D02*
X113695Y-69924D01*
X113498Y-70345D01*
X113301Y-69924D01*
X113301Y-70514D01*
X113020Y-70514D02*
X113020Y-69924D01*
X113020Y-70205D02*
X112682Y-70205D01*
X112682Y-70514D02*
X112682Y-69924D01*
X112457Y-70120D02*
X112148Y-70120D01*
X112457Y-70514D01*
X112148Y-70514D01*
X116310Y-71122D02*
X116366Y-71093D01*
X116394Y-71065D01*
X116422Y-71009D01*
X116422Y-70981D01*
X116394Y-70925D01*
X116366Y-70897D01*
X116310Y-70868D01*
X116197Y-70868D01*
X116141Y-70897D01*
X116113Y-70925D01*
X116085Y-70981D01*
X116085Y-71009D01*
X116113Y-71065D01*
X116141Y-71093D01*
X116197Y-71122D01*
X116310Y-71122D01*
X116366Y-71150D01*
X116394Y-71178D01*
X116422Y-71234D01*
X116422Y-71347D01*
X116394Y-71403D01*
X116366Y-71431D01*
X116310Y-71459D01*
X116197Y-71459D01*
X116141Y-71431D01*
X116113Y-71403D01*
X116085Y-71347D01*
X116085Y-71234D01*
X116113Y-71178D01*
X116141Y-71150D01*
X116197Y-71122D01*
X115551Y-70868D02*
X115832Y-70868D01*
X115860Y-71150D01*
X115832Y-71122D01*
X115776Y-71093D01*
X115635Y-71093D01*
X115579Y-71122D01*
X115551Y-71150D01*
X115523Y-71206D01*
X115523Y-71347D01*
X115551Y-71403D01*
X115579Y-71431D01*
X115635Y-71459D01*
X115776Y-71459D01*
X115832Y-71431D01*
X115860Y-71403D01*
X114820Y-71459D02*
X114820Y-70868D01*
X114623Y-71290D01*
X114426Y-70868D01*
X114426Y-71459D01*
X114145Y-71459D02*
X114145Y-70868D01*
X114145Y-71150D02*
X113807Y-71150D01*
X113807Y-71459D02*
X113807Y-70868D01*
X113582Y-71065D02*
X113273Y-71065D01*
X113582Y-71459D01*
X113273Y-71459D01*
X112429Y-71684D02*
X112457Y-71656D01*
X112514Y-71571D01*
X112542Y-71515D01*
X112570Y-71431D01*
X112598Y-71290D01*
X112598Y-71178D01*
X112570Y-71037D01*
X112542Y-70953D01*
X112514Y-70897D01*
X112457Y-70812D01*
X112429Y-70784D01*
X112204Y-71459D02*
X112204Y-71065D01*
X112204Y-71122D02*
X112176Y-71093D01*
X112120Y-71065D01*
X112035Y-71065D01*
X111979Y-71093D01*
X111951Y-71150D01*
X111951Y-71459D01*
X111951Y-71150D02*
X111923Y-71093D01*
X111867Y-71065D01*
X111782Y-71065D01*
X111726Y-71093D01*
X111698Y-71150D01*
X111698Y-71459D01*
X111417Y-71459D02*
X111417Y-71065D01*
X111417Y-70868D02*
X111445Y-70897D01*
X111417Y-70925D01*
X111389Y-70897D01*
X111417Y-70868D01*
X111417Y-70925D01*
X111136Y-71065D02*
X111136Y-71459D01*
X111136Y-71122D02*
X111107Y-71093D01*
X111051Y-71065D01*
X110967Y-71065D01*
X110911Y-71093D01*
X110883Y-71150D01*
X110883Y-71459D01*
X110658Y-71684D02*
X110629Y-71656D01*
X110573Y-71571D01*
X110545Y-71515D01*
X110517Y-71431D01*
X110489Y-71290D01*
X110489Y-71178D01*
X110517Y-71037D01*
X110545Y-70953D01*
X110573Y-70897D01*
X110629Y-70812D01*
X110658Y-70784D01*
X116422Y-71870D02*
X116394Y-71841D01*
X116338Y-71813D01*
X116197Y-71813D01*
X116141Y-71841D01*
X116113Y-71870D01*
X116085Y-71926D01*
X116085Y-71982D01*
X116113Y-72066D01*
X116451Y-72404D01*
X116085Y-72404D01*
X115832Y-72348D02*
X115804Y-72376D01*
X115832Y-72404D01*
X115860Y-72376D01*
X115832Y-72348D01*
X115832Y-72404D01*
X115438Y-71813D02*
X115382Y-71813D01*
X115326Y-71841D01*
X115298Y-71870D01*
X115269Y-71926D01*
X115241Y-72038D01*
X115241Y-72179D01*
X115269Y-72291D01*
X115298Y-72348D01*
X115326Y-72376D01*
X115382Y-72404D01*
X115438Y-72404D01*
X115494Y-72376D01*
X115523Y-72348D01*
X115551Y-72291D01*
X115579Y-72179D01*
X115579Y-72038D01*
X115551Y-71926D01*
X115523Y-71870D01*
X115494Y-71841D01*
X115438Y-71813D01*
X114370Y-72629D02*
X114398Y-72601D01*
X114454Y-72516D01*
X114482Y-72460D01*
X114510Y-72376D01*
X114538Y-72235D01*
X114538Y-72123D01*
X114510Y-71982D01*
X114482Y-71898D01*
X114454Y-71841D01*
X114398Y-71757D01*
X114370Y-71729D01*
X114145Y-72404D02*
X114145Y-72010D01*
X114145Y-72066D02*
X114116Y-72038D01*
X114060Y-72010D01*
X113976Y-72010D01*
X113920Y-72038D01*
X113892Y-72095D01*
X113892Y-72404D01*
X113892Y-72095D02*
X113863Y-72038D01*
X113807Y-72010D01*
X113723Y-72010D01*
X113667Y-72038D01*
X113638Y-72095D01*
X113638Y-72404D01*
X113104Y-72404D02*
X113104Y-72095D01*
X113132Y-72038D01*
X113188Y-72010D01*
X113301Y-72010D01*
X113357Y-72038D01*
X113104Y-72376D02*
X113160Y-72404D01*
X113301Y-72404D01*
X113357Y-72376D01*
X113385Y-72320D01*
X113385Y-72263D01*
X113357Y-72207D01*
X113301Y-72179D01*
X113160Y-72179D01*
X113104Y-72151D01*
X112879Y-72404D02*
X112570Y-72010D01*
X112879Y-72010D02*
X112570Y-72404D01*
X112401Y-72629D02*
X112373Y-72601D01*
X112317Y-72516D01*
X112289Y-72460D01*
X112260Y-72376D01*
X112232Y-72235D01*
X112232Y-72123D01*
X112260Y-71982D01*
X112289Y-71898D01*
X112317Y-71841D01*
X112373Y-71757D01*
X112401Y-71729D01*
X116394Y-73124D02*
X115944Y-73124D01*
X116169Y-73349D02*
X116169Y-72899D01*
X115382Y-72758D02*
X115663Y-72758D01*
X115691Y-73039D01*
X115663Y-73011D01*
X115607Y-72983D01*
X115466Y-72983D01*
X115410Y-73011D01*
X115382Y-73039D01*
X115354Y-73096D01*
X115354Y-73236D01*
X115382Y-73293D01*
X115410Y-73321D01*
X115466Y-73349D01*
X115607Y-73349D01*
X115663Y-73321D01*
X115691Y-73293D01*
X115101Y-73293D02*
X115073Y-73321D01*
X115101Y-73349D01*
X115129Y-73321D01*
X115101Y-73293D01*
X115101Y-73349D01*
X114707Y-72758D02*
X114651Y-72758D01*
X114595Y-72786D01*
X114566Y-72814D01*
X114538Y-72871D01*
X114510Y-72983D01*
X114510Y-73124D01*
X114538Y-73236D01*
X114566Y-73293D01*
X114595Y-73321D01*
X114651Y-73349D01*
X114707Y-73349D01*
X114763Y-73321D01*
X114791Y-73293D01*
X114820Y-73236D01*
X114848Y-73124D01*
X114848Y-72983D01*
X114820Y-72871D01*
X114791Y-72814D01*
X114763Y-72786D01*
X114707Y-72758D01*
X113554Y-73349D02*
X113554Y-72758D01*
X113554Y-73321D02*
X113610Y-73349D01*
X113723Y-73349D01*
X113779Y-73321D01*
X113807Y-73293D01*
X113835Y-73236D01*
X113835Y-73068D01*
X113807Y-73011D01*
X113779Y-72983D01*
X113723Y-72955D01*
X113610Y-72955D01*
X113554Y-72983D01*
X113076Y-73039D02*
X112992Y-73068D01*
X112964Y-73096D01*
X112935Y-73152D01*
X112935Y-73236D01*
X112964Y-73293D01*
X112992Y-73321D01*
X113048Y-73349D01*
X113273Y-73349D01*
X113273Y-72758D01*
X113076Y-72758D01*
X113020Y-72786D01*
X112992Y-72814D01*
X112964Y-72871D01*
X112964Y-72927D01*
X112992Y-72983D01*
X113020Y-73011D01*
X113076Y-73039D01*
X113273Y-73039D01*
X112682Y-73349D02*
X112682Y-72955D01*
X112682Y-72758D02*
X112710Y-72786D01*
X112682Y-72814D01*
X112654Y-72786D01*
X112682Y-72758D01*
X112682Y-72814D01*
X112148Y-73321D02*
X112204Y-73349D01*
X112317Y-73349D01*
X112373Y-73321D01*
X112401Y-73293D01*
X112429Y-73236D01*
X112429Y-73068D01*
X112401Y-73011D01*
X112373Y-72983D01*
X112317Y-72955D01*
X112204Y-72955D01*
X112148Y-72983D01*
X111276Y-73574D02*
X111304Y-73546D01*
X111361Y-73461D01*
X111389Y-73405D01*
X111417Y-73321D01*
X111445Y-73180D01*
X111445Y-73068D01*
X111417Y-72927D01*
X111389Y-72843D01*
X111361Y-72786D01*
X111304Y-72702D01*
X111276Y-72674D01*
X111136Y-72955D02*
X110911Y-72955D01*
X111051Y-72758D02*
X111051Y-73264D01*
X111023Y-73321D01*
X110967Y-73349D01*
X110911Y-73349D01*
X110770Y-72955D02*
X110629Y-73349D01*
X110489Y-72955D02*
X110629Y-73349D01*
X110686Y-73489D01*
X110714Y-73517D01*
X110770Y-73546D01*
X110264Y-72955D02*
X110264Y-73546D01*
X110264Y-72983D02*
X110208Y-72955D01*
X110095Y-72955D01*
X110039Y-72983D01*
X110011Y-73011D01*
X109983Y-73068D01*
X109983Y-73236D01*
X110011Y-73293D01*
X110039Y-73321D01*
X110095Y-73349D01*
X110208Y-73349D01*
X110264Y-73321D01*
X109730Y-73293D02*
X109701Y-73321D01*
X109730Y-73349D01*
X109758Y-73321D01*
X109730Y-73293D01*
X109730Y-73349D01*
X109505Y-73574D02*
X109476Y-73546D01*
X109420Y-73461D01*
X109392Y-73405D01*
X109364Y-73321D01*
X109336Y-73180D01*
X109336Y-73068D01*
X109364Y-72927D01*
X109392Y-72843D01*
X109420Y-72786D01*
X109476Y-72702D01*
X109505Y-72674D01*
X116394Y-74069D02*
X115944Y-74069D01*
X115354Y-74294D02*
X115691Y-74294D01*
X115523Y-74294D02*
X115523Y-73703D01*
X115579Y-73787D01*
X115635Y-73844D01*
X115691Y-73872D01*
X115101Y-74237D02*
X115073Y-74266D01*
X115101Y-74294D01*
X115129Y-74266D01*
X115101Y-74237D01*
X115101Y-74294D01*
X114707Y-73703D02*
X114651Y-73703D01*
X114595Y-73731D01*
X114566Y-73759D01*
X114538Y-73816D01*
X114510Y-73928D01*
X114510Y-74069D01*
X114538Y-74181D01*
X114566Y-74237D01*
X114595Y-74266D01*
X114651Y-74294D01*
X114707Y-74294D01*
X114763Y-74266D01*
X114791Y-74237D01*
X114820Y-74181D01*
X114848Y-74069D01*
X114848Y-73928D01*
X114820Y-73816D01*
X114791Y-73759D01*
X114763Y-73731D01*
X114707Y-73703D01*
X113554Y-74294D02*
X113554Y-73703D01*
X113554Y-74266D02*
X113610Y-74294D01*
X113723Y-74294D01*
X113779Y-74266D01*
X113807Y-74237D01*
X113835Y-74181D01*
X113835Y-74012D01*
X113807Y-73956D01*
X113779Y-73928D01*
X113723Y-73900D01*
X113610Y-73900D01*
X113554Y-73928D01*
X113076Y-73984D02*
X112992Y-74012D01*
X112964Y-74041D01*
X112935Y-74097D01*
X112935Y-74181D01*
X112964Y-74237D01*
X112992Y-74266D01*
X113048Y-74294D01*
X113273Y-74294D01*
X113273Y-73703D01*
X113076Y-73703D01*
X113020Y-73731D01*
X112992Y-73759D01*
X112964Y-73816D01*
X112964Y-73872D01*
X112992Y-73928D01*
X113020Y-73956D01*
X113076Y-73984D01*
X113273Y-73984D01*
X112682Y-74294D02*
X112682Y-73900D01*
X112682Y-73703D02*
X112710Y-73731D01*
X112682Y-73759D01*
X112654Y-73731D01*
X112682Y-73703D01*
X112682Y-73759D01*
X112148Y-74266D02*
X112204Y-74294D01*
X112317Y-74294D01*
X112373Y-74266D01*
X112401Y-74237D01*
X112429Y-74181D01*
X112429Y-74012D01*
X112401Y-73956D01*
X112373Y-73928D01*
X112317Y-73900D01*
X112204Y-73900D01*
X112148Y-73928D01*
X111276Y-74519D02*
X111304Y-74491D01*
X111361Y-74406D01*
X111389Y-74350D01*
X111417Y-74266D01*
X111445Y-74125D01*
X111445Y-74012D01*
X111417Y-73872D01*
X111389Y-73787D01*
X111361Y-73731D01*
X111304Y-73647D01*
X111276Y-73619D01*
X111136Y-73900D02*
X110911Y-73900D01*
X111051Y-73703D02*
X111051Y-74209D01*
X111023Y-74266D01*
X110967Y-74294D01*
X110911Y-74294D01*
X110770Y-73900D02*
X110629Y-74294D01*
X110489Y-73900D02*
X110629Y-74294D01*
X110686Y-74434D01*
X110714Y-74462D01*
X110770Y-74491D01*
X110264Y-73900D02*
X110264Y-74491D01*
X110264Y-73928D02*
X110208Y-73900D01*
X110095Y-73900D01*
X110039Y-73928D01*
X110011Y-73956D01*
X109983Y-74012D01*
X109983Y-74181D01*
X110011Y-74237D01*
X110039Y-74266D01*
X110095Y-74294D01*
X110208Y-74294D01*
X110264Y-74266D01*
X109730Y-74237D02*
X109701Y-74266D01*
X109730Y-74294D01*
X109758Y-74266D01*
X109730Y-74237D01*
X109730Y-74294D01*
X109505Y-74519D02*
X109476Y-74491D01*
X109420Y-74406D01*
X109392Y-74350D01*
X109364Y-74266D01*
X109336Y-74125D01*
X109336Y-74012D01*
X109364Y-73872D01*
X109392Y-73787D01*
X109420Y-73731D01*
X109476Y-73647D01*
X109505Y-73619D01*
X116451Y-74648D02*
X116085Y-74648D01*
X116282Y-74873D01*
X116197Y-74873D01*
X116141Y-74901D01*
X116113Y-74929D01*
X116085Y-74985D01*
X116085Y-75126D01*
X116113Y-75182D01*
X116141Y-75210D01*
X116197Y-75239D01*
X116366Y-75239D01*
X116422Y-75210D01*
X116451Y-75182D01*
X115129Y-75239D02*
X115129Y-74648D01*
X115129Y-75210D02*
X115185Y-75239D01*
X115298Y-75239D01*
X115354Y-75210D01*
X115382Y-75182D01*
X115410Y-75126D01*
X115410Y-74957D01*
X115382Y-74901D01*
X115354Y-74873D01*
X115298Y-74845D01*
X115185Y-74845D01*
X115129Y-74873D01*
X114651Y-74929D02*
X114566Y-74957D01*
X114538Y-74985D01*
X114510Y-75042D01*
X114510Y-75126D01*
X114538Y-75182D01*
X114566Y-75210D01*
X114623Y-75239D01*
X114848Y-75239D01*
X114848Y-74648D01*
X114651Y-74648D01*
X114595Y-74676D01*
X114566Y-74704D01*
X114538Y-74760D01*
X114538Y-74817D01*
X114566Y-74873D01*
X114595Y-74901D01*
X114651Y-74929D01*
X114848Y-74929D01*
X113638Y-75464D02*
X113667Y-75435D01*
X113723Y-75351D01*
X113751Y-75295D01*
X113779Y-75210D01*
X113807Y-75070D01*
X113807Y-74957D01*
X113779Y-74817D01*
X113751Y-74732D01*
X113723Y-74676D01*
X113667Y-74592D01*
X113638Y-74564D01*
X113413Y-75239D02*
X113413Y-74845D01*
X113413Y-74901D02*
X113385Y-74873D01*
X113329Y-74845D01*
X113245Y-74845D01*
X113188Y-74873D01*
X113160Y-74929D01*
X113160Y-75239D01*
X113160Y-74929D02*
X113132Y-74873D01*
X113076Y-74845D01*
X112992Y-74845D01*
X112935Y-74873D01*
X112907Y-74929D01*
X112907Y-75239D01*
X112373Y-75239D02*
X112373Y-74929D01*
X112401Y-74873D01*
X112457Y-74845D01*
X112570Y-74845D01*
X112626Y-74873D01*
X112373Y-75210D02*
X112429Y-75239D01*
X112570Y-75239D01*
X112626Y-75210D01*
X112654Y-75154D01*
X112654Y-75098D01*
X112626Y-75042D01*
X112570Y-75014D01*
X112429Y-75014D01*
X112373Y-74985D01*
X112148Y-75239D02*
X111839Y-74845D01*
X112148Y-74845D02*
X111839Y-75239D01*
X111670Y-75464D02*
X111642Y-75435D01*
X111586Y-75351D01*
X111557Y-75295D01*
X111529Y-75210D01*
X111501Y-75070D01*
X111501Y-74957D01*
X111529Y-74817D01*
X111557Y-74732D01*
X111586Y-74676D01*
X111642Y-74592D01*
X111670Y-74564D01*
X116057Y-76183D02*
X116254Y-75902D01*
X116394Y-76183D02*
X116394Y-75593D01*
X116169Y-75593D01*
X116113Y-75621D01*
X116085Y-75649D01*
X116057Y-75705D01*
X116057Y-75790D01*
X116085Y-75846D01*
X116113Y-75874D01*
X116169Y-75902D01*
X116394Y-75902D01*
X115804Y-76183D02*
X115804Y-75593D01*
X115804Y-75874D02*
X115466Y-75874D01*
X115466Y-76183D02*
X115466Y-75593D01*
X114848Y-76127D02*
X114876Y-76155D01*
X114960Y-76183D01*
X115016Y-76183D01*
X115101Y-76155D01*
X115157Y-76099D01*
X115185Y-76043D01*
X115213Y-75930D01*
X115213Y-75846D01*
X115185Y-75733D01*
X115157Y-75677D01*
X115101Y-75621D01*
X115016Y-75593D01*
X114960Y-75593D01*
X114876Y-75621D01*
X114848Y-75649D01*
X114595Y-76183D02*
X114595Y-75593D01*
X114370Y-75593D01*
X114313Y-75621D01*
X114285Y-75649D01*
X114257Y-75705D01*
X114257Y-75790D01*
X114285Y-75846D01*
X114313Y-75874D01*
X114370Y-75902D01*
X114595Y-75902D01*
X116113Y-76538D02*
X116394Y-76538D01*
X116422Y-76819D01*
X116394Y-76791D01*
X116338Y-76763D01*
X116197Y-76763D01*
X116141Y-76791D01*
X116113Y-76819D01*
X116085Y-76875D01*
X116085Y-77016D01*
X116113Y-77072D01*
X116141Y-77100D01*
X116197Y-77128D01*
X116338Y-77128D01*
X116394Y-77100D01*
X116422Y-77072D01*
X115719Y-76538D02*
X115663Y-76538D01*
X115607Y-76566D01*
X115579Y-76594D01*
X115551Y-76650D01*
X115523Y-76763D01*
X115523Y-76903D01*
X115551Y-77016D01*
X115579Y-77072D01*
X115607Y-77100D01*
X115663Y-77128D01*
X115719Y-77128D01*
X115776Y-77100D01*
X115804Y-77072D01*
X115832Y-77016D01*
X115860Y-76903D01*
X115860Y-76763D01*
X115832Y-76650D01*
X115804Y-76594D01*
X115776Y-76566D01*
X115719Y-76538D01*
X114848Y-77128D02*
X114707Y-77128D01*
X114707Y-77016D01*
X114763Y-76988D01*
X114820Y-76931D01*
X114848Y-76847D01*
X114848Y-76706D01*
X114820Y-76622D01*
X114763Y-76566D01*
X114679Y-76538D01*
X114566Y-76538D01*
X114482Y-76566D01*
X114426Y-76622D01*
X114398Y-76706D01*
X114398Y-76847D01*
X114426Y-76931D01*
X114482Y-76988D01*
X114538Y-77016D01*
X114538Y-77128D01*
X114398Y-77128D01*
X116394Y-77848D02*
X115944Y-77848D01*
X115410Y-77679D02*
X115410Y-78073D01*
X115551Y-77455D02*
X115691Y-77876D01*
X115326Y-77876D01*
X114988Y-77483D02*
X114932Y-77483D01*
X114876Y-77511D01*
X114848Y-77539D01*
X114820Y-77595D01*
X114791Y-77708D01*
X114791Y-77848D01*
X114820Y-77961D01*
X114848Y-78017D01*
X114876Y-78045D01*
X114932Y-78073D01*
X114988Y-78073D01*
X115044Y-78045D01*
X115073Y-78017D01*
X115101Y-77961D01*
X115129Y-77848D01*
X115129Y-77708D01*
X115101Y-77595D01*
X115073Y-77539D01*
X115044Y-77511D01*
X114988Y-77483D01*
X114173Y-77679D02*
X113948Y-77679D01*
X114088Y-77483D02*
X114088Y-77989D01*
X114060Y-78045D01*
X114004Y-78073D01*
X113948Y-78073D01*
X113667Y-78073D02*
X113723Y-78045D01*
X113751Y-78017D01*
X113779Y-77961D01*
X113779Y-77792D01*
X113751Y-77736D01*
X113723Y-77708D01*
X113667Y-77679D01*
X113582Y-77679D01*
X113526Y-77708D01*
X113498Y-77736D01*
X113470Y-77792D01*
X113470Y-77961D01*
X113498Y-78017D01*
X113526Y-78045D01*
X113582Y-78073D01*
X113667Y-78073D01*
X112767Y-77848D02*
X112317Y-77848D01*
X112542Y-78073D02*
X112542Y-77623D01*
X111951Y-77736D02*
X112007Y-77708D01*
X112035Y-77679D01*
X112064Y-77623D01*
X112064Y-77595D01*
X112035Y-77539D01*
X112007Y-77511D01*
X111951Y-77483D01*
X111839Y-77483D01*
X111782Y-77511D01*
X111754Y-77539D01*
X111726Y-77595D01*
X111726Y-77623D01*
X111754Y-77679D01*
X111782Y-77708D01*
X111839Y-77736D01*
X111951Y-77736D01*
X112007Y-77764D01*
X112035Y-77792D01*
X112064Y-77848D01*
X112064Y-77961D01*
X112035Y-78017D01*
X112007Y-78045D01*
X111951Y-78073D01*
X111839Y-78073D01*
X111782Y-78045D01*
X111754Y-78017D01*
X111726Y-77961D01*
X111726Y-77848D01*
X111754Y-77792D01*
X111782Y-77764D01*
X111839Y-77736D01*
X111361Y-77483D02*
X111304Y-77483D01*
X111248Y-77511D01*
X111220Y-77539D01*
X111192Y-77595D01*
X111164Y-77708D01*
X111164Y-77848D01*
X111192Y-77961D01*
X111220Y-78017D01*
X111248Y-78045D01*
X111304Y-78073D01*
X111361Y-78073D01*
X111417Y-78045D01*
X111445Y-78017D01*
X111473Y-77961D01*
X111501Y-77848D01*
X111501Y-77708D01*
X111473Y-77595D01*
X111445Y-77539D01*
X111417Y-77511D01*
X111361Y-77483D01*
X110376Y-77483D02*
X110433Y-77511D01*
X110461Y-77567D01*
X110433Y-77623D01*
X110376Y-77651D01*
X110320Y-77623D01*
X110292Y-77567D01*
X110320Y-77511D01*
X110376Y-77483D01*
X109673Y-78017D02*
X109701Y-78045D01*
X109786Y-78073D01*
X109842Y-78073D01*
X109926Y-78045D01*
X109983Y-77989D01*
X110011Y-77933D01*
X110039Y-77820D01*
X110039Y-77736D01*
X110011Y-77623D01*
X109983Y-77567D01*
X109926Y-77511D01*
X109842Y-77483D01*
X109786Y-77483D01*
X109701Y-77511D01*
X109673Y-77539D01*
X126940Y-70458D02*
X126968Y-70486D01*
X127052Y-70514D01*
X127109Y-70514D01*
X127193Y-70486D01*
X127249Y-70430D01*
X127277Y-70374D01*
X127305Y-70261D01*
X127305Y-70177D01*
X127277Y-70064D01*
X127249Y-70008D01*
X127193Y-69952D01*
X127109Y-69924D01*
X127052Y-69924D01*
X126968Y-69952D01*
X126940Y-69980D01*
X126462Y-70486D02*
X126518Y-70514D01*
X126631Y-70514D01*
X126687Y-70486D01*
X126715Y-70430D01*
X126715Y-70205D01*
X126687Y-70149D01*
X126631Y-70120D01*
X126518Y-70120D01*
X126462Y-70149D01*
X126434Y-70205D01*
X126434Y-70261D01*
X126715Y-70317D01*
X126181Y-70120D02*
X126181Y-70514D01*
X126181Y-70177D02*
X126152Y-70149D01*
X126096Y-70120D01*
X126012Y-70120D01*
X125956Y-70149D01*
X125928Y-70205D01*
X125928Y-70514D01*
X125731Y-70120D02*
X125506Y-70120D01*
X125646Y-69924D02*
X125646Y-70430D01*
X125618Y-70486D01*
X125562Y-70514D01*
X125506Y-70514D01*
X125084Y-70486D02*
X125140Y-70514D01*
X125253Y-70514D01*
X125309Y-70486D01*
X125337Y-70430D01*
X125337Y-70205D01*
X125309Y-70149D01*
X125253Y-70120D01*
X125140Y-70120D01*
X125084Y-70149D01*
X125056Y-70205D01*
X125056Y-70261D01*
X125337Y-70317D01*
X124803Y-70514D02*
X124803Y-70120D01*
X124803Y-70233D02*
X124775Y-70177D01*
X124746Y-70149D01*
X124690Y-70120D01*
X124634Y-70120D01*
X123790Y-70205D02*
X123987Y-70205D01*
X123987Y-70514D02*
X123987Y-69924D01*
X123706Y-69924D01*
X123481Y-70514D02*
X123481Y-70120D01*
X123481Y-70233D02*
X123453Y-70177D01*
X123425Y-70149D01*
X123368Y-70120D01*
X123312Y-70120D01*
X122890Y-70486D02*
X122947Y-70514D01*
X123059Y-70514D01*
X123115Y-70486D01*
X123143Y-70430D01*
X123143Y-70205D01*
X123115Y-70149D01*
X123059Y-70120D01*
X122947Y-70120D01*
X122890Y-70149D01*
X122862Y-70205D01*
X122862Y-70261D01*
X123143Y-70317D01*
X122356Y-70120D02*
X122356Y-70711D01*
X122356Y-70486D02*
X122412Y-70514D01*
X122525Y-70514D01*
X122581Y-70486D01*
X122609Y-70458D01*
X122637Y-70402D01*
X122637Y-70233D01*
X122609Y-70177D01*
X122581Y-70149D01*
X122525Y-70120D01*
X122412Y-70120D01*
X122356Y-70149D01*
X121822Y-70120D02*
X121822Y-70514D01*
X122075Y-70120D02*
X122075Y-70430D01*
X122047Y-70486D01*
X121991Y-70514D01*
X121906Y-70514D01*
X121850Y-70486D01*
X121822Y-70458D01*
X121316Y-70486D02*
X121372Y-70514D01*
X121484Y-70514D01*
X121541Y-70486D01*
X121569Y-70430D01*
X121569Y-70205D01*
X121541Y-70149D01*
X121484Y-70120D01*
X121372Y-70120D01*
X121316Y-70149D01*
X121287Y-70205D01*
X121287Y-70261D01*
X121569Y-70317D01*
X121034Y-70120D02*
X121034Y-70514D01*
X121034Y-70177D02*
X121006Y-70149D01*
X120950Y-70120D01*
X120866Y-70120D01*
X120809Y-70149D01*
X120781Y-70205D01*
X120781Y-70514D01*
X120247Y-70486D02*
X120303Y-70514D01*
X120416Y-70514D01*
X120472Y-70486D01*
X120500Y-70458D01*
X120528Y-70402D01*
X120528Y-70233D01*
X120500Y-70177D01*
X120472Y-70149D01*
X120416Y-70120D01*
X120303Y-70120D01*
X120247Y-70149D01*
X120050Y-70120D02*
X119910Y-70514D01*
X119769Y-70120D02*
X119910Y-70514D01*
X119966Y-70655D01*
X119994Y-70683D01*
X120050Y-70711D01*
X123847Y-71150D02*
X123762Y-71178D01*
X123734Y-71206D01*
X123706Y-71262D01*
X123706Y-71347D01*
X123734Y-71403D01*
X123762Y-71431D01*
X123818Y-71459D01*
X124043Y-71459D01*
X124043Y-70868D01*
X123847Y-70868D01*
X123790Y-70897D01*
X123762Y-70925D01*
X123734Y-70981D01*
X123734Y-71037D01*
X123762Y-71093D01*
X123790Y-71122D01*
X123847Y-71150D01*
X124043Y-71150D01*
X123200Y-71459D02*
X123200Y-71150D01*
X123228Y-71093D01*
X123284Y-71065D01*
X123397Y-71065D01*
X123453Y-71093D01*
X123200Y-71431D02*
X123256Y-71459D01*
X123397Y-71459D01*
X123453Y-71431D01*
X123481Y-71375D01*
X123481Y-71318D01*
X123453Y-71262D01*
X123397Y-71234D01*
X123256Y-71234D01*
X123200Y-71206D01*
X122919Y-71065D02*
X122919Y-71459D01*
X122919Y-71122D02*
X122890Y-71093D01*
X122834Y-71065D01*
X122750Y-71065D01*
X122694Y-71093D01*
X122665Y-71150D01*
X122665Y-71459D01*
X122131Y-71459D02*
X122131Y-70868D01*
X122131Y-71431D02*
X122187Y-71459D01*
X122300Y-71459D01*
X122356Y-71431D01*
X122384Y-71403D01*
X122412Y-71347D01*
X122412Y-71178D01*
X122384Y-71122D01*
X122356Y-71093D01*
X122300Y-71065D01*
X122187Y-71065D01*
X122131Y-71093D01*
X121906Y-71065D02*
X121794Y-71459D01*
X121681Y-71178D01*
X121569Y-71459D01*
X121456Y-71065D01*
X121231Y-71459D02*
X121231Y-71065D01*
X121231Y-70868D02*
X121259Y-70897D01*
X121231Y-70925D01*
X121203Y-70897D01*
X121231Y-70868D01*
X121231Y-70925D01*
X120697Y-71459D02*
X120697Y-70868D01*
X120697Y-71431D02*
X120753Y-71459D01*
X120866Y-71459D01*
X120922Y-71431D01*
X120950Y-71403D01*
X120978Y-71347D01*
X120978Y-71178D01*
X120950Y-71122D01*
X120922Y-71093D01*
X120866Y-71065D01*
X120753Y-71065D01*
X120697Y-71093D01*
X120500Y-71065D02*
X120275Y-71065D01*
X120416Y-70868D02*
X120416Y-71375D01*
X120388Y-71431D01*
X120331Y-71459D01*
X120275Y-71459D01*
X120078Y-71459D02*
X120078Y-70868D01*
X119825Y-71459D02*
X119825Y-71150D01*
X119853Y-71093D01*
X119910Y-71065D01*
X119994Y-71065D01*
X120050Y-71093D01*
X120078Y-71122D01*
X121962Y-71813D02*
X121766Y-72404D01*
X121569Y-71813D01*
X121400Y-72376D02*
X121316Y-72404D01*
X121175Y-72404D01*
X121119Y-72376D01*
X121091Y-72348D01*
X121062Y-72291D01*
X121062Y-72235D01*
X121091Y-72179D01*
X121119Y-72151D01*
X121175Y-72123D01*
X121287Y-72095D01*
X121344Y-72066D01*
X121372Y-72038D01*
X121400Y-71982D01*
X121400Y-71926D01*
X121372Y-71870D01*
X121344Y-71841D01*
X121287Y-71813D01*
X121147Y-71813D01*
X121062Y-71841D01*
X120866Y-71813D02*
X120725Y-72404D01*
X120613Y-71982D01*
X120500Y-72404D01*
X120359Y-71813D01*
X119797Y-72404D02*
X119994Y-72123D01*
X120134Y-72404D02*
X120134Y-71813D01*
X119910Y-71813D01*
X119853Y-71841D01*
X119825Y-71870D01*
X119797Y-71926D01*
X119797Y-72010D01*
X119825Y-72066D01*
X119853Y-72095D01*
X119910Y-72123D01*
X120134Y-72123D01*
X127052Y-72786D02*
X127109Y-72758D01*
X127193Y-72758D01*
X127277Y-72786D01*
X127334Y-72843D01*
X127362Y-72899D01*
X127390Y-73011D01*
X127390Y-73096D01*
X127362Y-73208D01*
X127334Y-73264D01*
X127277Y-73321D01*
X127193Y-73349D01*
X127137Y-73349D01*
X127052Y-73321D01*
X127024Y-73293D01*
X127024Y-73096D01*
X127137Y-73096D01*
X126518Y-73349D02*
X126518Y-73039D01*
X126546Y-72983D01*
X126602Y-72955D01*
X126715Y-72955D01*
X126771Y-72983D01*
X126518Y-73321D02*
X126574Y-73349D01*
X126715Y-73349D01*
X126771Y-73321D01*
X126799Y-73264D01*
X126799Y-73208D01*
X126771Y-73152D01*
X126715Y-73124D01*
X126574Y-73124D01*
X126518Y-73096D01*
X126237Y-73349D02*
X126237Y-72955D01*
X126237Y-72758D02*
X126265Y-72786D01*
X126237Y-72814D01*
X126209Y-72786D01*
X126237Y-72758D01*
X126237Y-72814D01*
X125956Y-72955D02*
X125956Y-73349D01*
X125956Y-73011D02*
X125928Y-72983D01*
X125871Y-72955D01*
X125787Y-72955D01*
X125731Y-72983D01*
X125703Y-73039D01*
X125703Y-73349D01*
X124718Y-73349D02*
X124718Y-73039D01*
X124746Y-72983D01*
X124803Y-72955D01*
X124915Y-72955D01*
X124971Y-72983D01*
X124718Y-73321D02*
X124775Y-73349D01*
X124915Y-73349D01*
X124971Y-73321D01*
X124999Y-73264D01*
X124999Y-73208D01*
X124971Y-73152D01*
X124915Y-73124D01*
X124775Y-73124D01*
X124718Y-73096D01*
X124521Y-72955D02*
X124296Y-72955D01*
X124437Y-72758D02*
X124437Y-73264D01*
X124409Y-73321D01*
X124353Y-73349D01*
X124296Y-73349D01*
X123622Y-73349D02*
X123509Y-73349D01*
X123453Y-73321D01*
X123425Y-73293D01*
X123368Y-73208D01*
X123340Y-73096D01*
X123340Y-72871D01*
X123368Y-72814D01*
X123397Y-72786D01*
X123453Y-72758D01*
X123565Y-72758D01*
X123622Y-72786D01*
X123650Y-72814D01*
X123678Y-72871D01*
X123678Y-73011D01*
X123650Y-73068D01*
X123622Y-73096D01*
X123565Y-73124D01*
X123453Y-73124D01*
X123397Y-73096D01*
X123368Y-73068D01*
X123340Y-73011D01*
X122975Y-72758D02*
X122919Y-72758D01*
X122862Y-72786D01*
X122834Y-72814D01*
X122806Y-72871D01*
X122778Y-72983D01*
X122778Y-73124D01*
X122806Y-73236D01*
X122834Y-73293D01*
X122862Y-73321D01*
X122919Y-73349D01*
X122975Y-73349D01*
X123031Y-73321D01*
X123059Y-73293D01*
X123087Y-73236D01*
X123115Y-73124D01*
X123115Y-72983D01*
X123087Y-72871D01*
X123059Y-72814D01*
X123031Y-72786D01*
X122975Y-72758D01*
X122440Y-72758D02*
X122497Y-72786D01*
X122525Y-72843D01*
X122497Y-72899D01*
X122440Y-72927D01*
X122384Y-72899D01*
X122356Y-72843D01*
X122384Y-72786D01*
X122440Y-72758D01*
X121625Y-73039D02*
X121428Y-73039D01*
X121344Y-73349D02*
X121625Y-73349D01*
X121625Y-72758D01*
X121344Y-72758D01*
X121006Y-73349D02*
X121062Y-73321D01*
X121091Y-73264D01*
X121091Y-72758D01*
X120556Y-73321D02*
X120613Y-73349D01*
X120725Y-73349D01*
X120781Y-73321D01*
X120809Y-73264D01*
X120809Y-73039D01*
X120781Y-72983D01*
X120725Y-72955D01*
X120613Y-72955D01*
X120556Y-72983D01*
X120528Y-73039D01*
X120528Y-73096D01*
X120809Y-73152D01*
X120331Y-72955D02*
X120191Y-73349D01*
X120050Y-72955D01*
X119825Y-73293D02*
X119797Y-73321D01*
X119825Y-73349D01*
X119853Y-73321D01*
X119825Y-73293D01*
X119825Y-73349D01*
X127052Y-73731D02*
X127109Y-73703D01*
X127193Y-73703D01*
X127277Y-73731D01*
X127334Y-73787D01*
X127362Y-73844D01*
X127390Y-73956D01*
X127390Y-74041D01*
X127362Y-74153D01*
X127334Y-74209D01*
X127277Y-74266D01*
X127193Y-74294D01*
X127137Y-74294D01*
X127052Y-74266D01*
X127024Y-74237D01*
X127024Y-74041D01*
X127137Y-74041D01*
X126518Y-74294D02*
X126518Y-73984D01*
X126546Y-73928D01*
X126602Y-73900D01*
X126715Y-73900D01*
X126771Y-73928D01*
X126518Y-74266D02*
X126574Y-74294D01*
X126715Y-74294D01*
X126771Y-74266D01*
X126799Y-74209D01*
X126799Y-74153D01*
X126771Y-74097D01*
X126715Y-74069D01*
X126574Y-74069D01*
X126518Y-74041D01*
X126237Y-74294D02*
X126237Y-73900D01*
X126237Y-73703D02*
X126265Y-73731D01*
X126237Y-73759D01*
X126209Y-73731D01*
X126237Y-73703D01*
X126237Y-73759D01*
X125956Y-73900D02*
X125956Y-74294D01*
X125956Y-73956D02*
X125928Y-73928D01*
X125871Y-73900D01*
X125787Y-73900D01*
X125731Y-73928D01*
X125703Y-73984D01*
X125703Y-74294D01*
X124718Y-74294D02*
X124718Y-73984D01*
X124746Y-73928D01*
X124803Y-73900D01*
X124915Y-73900D01*
X124971Y-73928D01*
X124718Y-74266D02*
X124775Y-74294D01*
X124915Y-74294D01*
X124971Y-74266D01*
X124999Y-74209D01*
X124999Y-74153D01*
X124971Y-74097D01*
X124915Y-74069D01*
X124775Y-74069D01*
X124718Y-74041D01*
X124521Y-73900D02*
X124296Y-73900D01*
X124437Y-73703D02*
X124437Y-74209D01*
X124409Y-74266D01*
X124353Y-74294D01*
X124296Y-74294D01*
X123340Y-74294D02*
X123678Y-74294D01*
X123509Y-74294D02*
X123509Y-73703D01*
X123565Y-73787D01*
X123622Y-73844D01*
X123678Y-73872D01*
X122975Y-73703D02*
X122919Y-73703D01*
X122862Y-73731D01*
X122834Y-73759D01*
X122806Y-73816D01*
X122778Y-73928D01*
X122778Y-74069D01*
X122806Y-74181D01*
X122834Y-74237D01*
X122862Y-74266D01*
X122919Y-74294D01*
X122975Y-74294D01*
X123031Y-74266D01*
X123059Y-74237D01*
X123087Y-74181D01*
X123115Y-74069D01*
X123115Y-73928D01*
X123087Y-73816D01*
X123059Y-73759D01*
X123031Y-73731D01*
X122975Y-73703D01*
X122440Y-73703D02*
X122497Y-73731D01*
X122525Y-73787D01*
X122497Y-73844D01*
X122440Y-73872D01*
X122384Y-73844D01*
X122356Y-73787D01*
X122384Y-73731D01*
X122440Y-73703D01*
X121625Y-73984D02*
X121428Y-73984D01*
X121344Y-74294D02*
X121625Y-74294D01*
X121625Y-73703D01*
X121344Y-73703D01*
X121006Y-74294D02*
X121062Y-74266D01*
X121091Y-74209D01*
X121091Y-73703D01*
X120556Y-74266D02*
X120613Y-74294D01*
X120725Y-74294D01*
X120781Y-74266D01*
X120809Y-74209D01*
X120809Y-73984D01*
X120781Y-73928D01*
X120725Y-73900D01*
X120613Y-73900D01*
X120556Y-73928D01*
X120528Y-73984D01*
X120528Y-74041D01*
X120809Y-74097D01*
X120331Y-73900D02*
X120191Y-74294D01*
X120050Y-73900D01*
X119825Y-74237D02*
X119797Y-74266D01*
X119825Y-74294D01*
X119853Y-74266D01*
X119825Y-74237D01*
X119825Y-74294D01*
X124409Y-75070D02*
X124128Y-75070D01*
X124465Y-75239D02*
X124268Y-74648D01*
X124071Y-75239D01*
X123931Y-75239D02*
X123622Y-74845D01*
X123931Y-74845D02*
X123622Y-75239D01*
X123397Y-75239D02*
X123397Y-74845D01*
X123397Y-74648D02*
X123425Y-74676D01*
X123397Y-74704D01*
X123368Y-74676D01*
X123397Y-74648D01*
X123397Y-74704D01*
X122862Y-75239D02*
X122862Y-74929D01*
X122890Y-74873D01*
X122947Y-74845D01*
X123059Y-74845D01*
X123115Y-74873D01*
X122862Y-75210D02*
X122919Y-75239D01*
X123059Y-75239D01*
X123115Y-75210D01*
X123143Y-75154D01*
X123143Y-75098D01*
X123115Y-75042D01*
X123059Y-75014D01*
X122919Y-75014D01*
X122862Y-74985D01*
X122497Y-75239D02*
X122553Y-75210D01*
X122581Y-75154D01*
X122581Y-74648D01*
X121484Y-75239D02*
X121681Y-74957D01*
X121822Y-75239D02*
X121822Y-74648D01*
X121597Y-74648D01*
X121541Y-74676D01*
X121512Y-74704D01*
X121484Y-74760D01*
X121484Y-74845D01*
X121512Y-74901D01*
X121541Y-74929D01*
X121597Y-74957D01*
X121822Y-74957D01*
X120978Y-75239D02*
X120978Y-74929D01*
X121006Y-74873D01*
X121062Y-74845D01*
X121175Y-74845D01*
X121231Y-74873D01*
X120978Y-75210D02*
X121034Y-75239D01*
X121175Y-75239D01*
X121231Y-75210D01*
X121259Y-75154D01*
X121259Y-75098D01*
X121231Y-75042D01*
X121175Y-75014D01*
X121034Y-75014D01*
X120978Y-74985D01*
X120781Y-74845D02*
X120556Y-74845D01*
X120697Y-74648D02*
X120697Y-75154D01*
X120669Y-75210D01*
X120613Y-75239D01*
X120556Y-75239D01*
X120359Y-75239D02*
X120359Y-74845D01*
X120359Y-74648D02*
X120388Y-74676D01*
X120359Y-74704D01*
X120331Y-74676D01*
X120359Y-74648D01*
X120359Y-74704D01*
X119994Y-75239D02*
X120050Y-75210D01*
X120078Y-75182D01*
X120106Y-75126D01*
X120106Y-74957D01*
X120078Y-74901D01*
X120050Y-74873D01*
X119994Y-74845D01*
X119910Y-74845D01*
X119853Y-74873D01*
X119825Y-74901D01*
X119797Y-74957D01*
X119797Y-75126D01*
X119825Y-75182D01*
X119853Y-75210D01*
X119910Y-75239D01*
X119994Y-75239D01*
X124859Y-76183D02*
X124859Y-75593D01*
X124634Y-75593D01*
X124578Y-75621D01*
X124550Y-75649D01*
X124521Y-75705D01*
X124521Y-75790D01*
X124550Y-75846D01*
X124578Y-75874D01*
X124634Y-75902D01*
X124859Y-75902D01*
X124184Y-76183D02*
X124240Y-76155D01*
X124268Y-76127D01*
X124296Y-76071D01*
X124296Y-75902D01*
X124268Y-75846D01*
X124240Y-75818D01*
X124184Y-75790D01*
X124100Y-75790D01*
X124043Y-75818D01*
X124015Y-75846D01*
X123987Y-75902D01*
X123987Y-76071D01*
X124015Y-76127D01*
X124043Y-76155D01*
X124100Y-76183D01*
X124184Y-76183D01*
X123650Y-76183D02*
X123706Y-76155D01*
X123734Y-76099D01*
X123734Y-75593D01*
X123172Y-76183D02*
X123172Y-75874D01*
X123200Y-75818D01*
X123256Y-75790D01*
X123368Y-75790D01*
X123425Y-75818D01*
X123172Y-76155D02*
X123228Y-76183D01*
X123368Y-76183D01*
X123425Y-76155D01*
X123453Y-76099D01*
X123453Y-76043D01*
X123425Y-75987D01*
X123368Y-75958D01*
X123228Y-75958D01*
X123172Y-75930D01*
X122890Y-76183D02*
X122890Y-75790D01*
X122890Y-75902D02*
X122862Y-75846D01*
X122834Y-75818D01*
X122778Y-75790D01*
X122722Y-75790D01*
X122525Y-76183D02*
X122525Y-75790D01*
X122525Y-75593D02*
X122553Y-75621D01*
X122525Y-75649D01*
X122497Y-75621D01*
X122525Y-75593D01*
X122525Y-75649D01*
X122300Y-75790D02*
X121991Y-75790D01*
X122300Y-76183D01*
X121991Y-76183D01*
X121512Y-76183D02*
X121512Y-75874D01*
X121541Y-75818D01*
X121597Y-75790D01*
X121709Y-75790D01*
X121766Y-75818D01*
X121512Y-76155D02*
X121569Y-76183D01*
X121709Y-76183D01*
X121766Y-76155D01*
X121794Y-76099D01*
X121794Y-76043D01*
X121766Y-75987D01*
X121709Y-75958D01*
X121569Y-75958D01*
X121512Y-75930D01*
X121316Y-75790D02*
X121091Y-75790D01*
X121231Y-75593D02*
X121231Y-76099D01*
X121203Y-76155D01*
X121147Y-76183D01*
X121091Y-76183D01*
X120894Y-76183D02*
X120894Y-75790D01*
X120894Y-75593D02*
X120922Y-75621D01*
X120894Y-75649D01*
X120866Y-75621D01*
X120894Y-75593D01*
X120894Y-75649D01*
X120528Y-76183D02*
X120584Y-76155D01*
X120613Y-76127D01*
X120641Y-76071D01*
X120641Y-75902D01*
X120613Y-75846D01*
X120584Y-75818D01*
X120528Y-75790D01*
X120444Y-75790D01*
X120388Y-75818D01*
X120359Y-75846D01*
X120331Y-75902D01*
X120331Y-76071D01*
X120359Y-76127D01*
X120388Y-76155D01*
X120444Y-76183D01*
X120528Y-76183D01*
X120078Y-75790D02*
X120078Y-76183D01*
X120078Y-75846D02*
X120050Y-75818D01*
X119994Y-75790D01*
X119910Y-75790D01*
X119853Y-75818D01*
X119825Y-75874D01*
X119825Y-76183D01*
X124268Y-77128D02*
X124268Y-76538D01*
X123987Y-77128D02*
X123987Y-76735D01*
X123987Y-76791D02*
X123959Y-76763D01*
X123903Y-76735D01*
X123818Y-76735D01*
X123762Y-76763D01*
X123734Y-76819D01*
X123734Y-77128D01*
X123734Y-76819D02*
X123706Y-76763D01*
X123650Y-76735D01*
X123565Y-76735D01*
X123509Y-76763D01*
X123481Y-76819D01*
X123481Y-77128D01*
X123200Y-76735D02*
X123200Y-77325D01*
X123200Y-76763D02*
X123143Y-76735D01*
X123031Y-76735D01*
X122975Y-76763D01*
X122947Y-76791D01*
X122919Y-76847D01*
X122919Y-77016D01*
X122947Y-77072D01*
X122975Y-77100D01*
X123031Y-77128D01*
X123143Y-77128D01*
X123200Y-77100D01*
X122440Y-77100D02*
X122497Y-77128D01*
X122609Y-77128D01*
X122665Y-77100D01*
X122694Y-77044D01*
X122694Y-76819D01*
X122665Y-76763D01*
X122609Y-76735D01*
X122497Y-76735D01*
X122440Y-76763D01*
X122412Y-76819D01*
X122412Y-76875D01*
X122694Y-76931D01*
X121906Y-77128D02*
X121906Y-76538D01*
X121906Y-77100D02*
X121962Y-77128D01*
X122075Y-77128D01*
X122131Y-77100D01*
X122159Y-77072D01*
X122187Y-77016D01*
X122187Y-76847D01*
X122159Y-76791D01*
X122131Y-76763D01*
X122075Y-76735D01*
X121962Y-76735D01*
X121906Y-76763D01*
X121372Y-77128D02*
X121372Y-76819D01*
X121400Y-76763D01*
X121456Y-76735D01*
X121569Y-76735D01*
X121625Y-76763D01*
X121372Y-77100D02*
X121428Y-77128D01*
X121569Y-77128D01*
X121625Y-77100D01*
X121653Y-77044D01*
X121653Y-76988D01*
X121625Y-76931D01*
X121569Y-76903D01*
X121428Y-76903D01*
X121372Y-76875D01*
X121091Y-76735D02*
X121091Y-77128D01*
X121091Y-76791D02*
X121062Y-76763D01*
X121006Y-76735D01*
X120922Y-76735D01*
X120866Y-76763D01*
X120838Y-76819D01*
X120838Y-77128D01*
X120303Y-77100D02*
X120359Y-77128D01*
X120472Y-77128D01*
X120528Y-77100D01*
X120556Y-77072D01*
X120584Y-77016D01*
X120584Y-76847D01*
X120556Y-76791D01*
X120528Y-76763D01*
X120472Y-76735D01*
X120359Y-76735D01*
X120303Y-76763D01*
X119825Y-77100D02*
X119881Y-77128D01*
X119994Y-77128D01*
X120050Y-77100D01*
X120078Y-77044D01*
X120078Y-76819D01*
X120050Y-76763D01*
X119994Y-76735D01*
X119881Y-76735D01*
X119825Y-76763D01*
X119797Y-76819D01*
X119797Y-76875D01*
X120078Y-76931D01*
X126687Y-77483D02*
X126574Y-77483D01*
X126518Y-77511D01*
X126462Y-77567D01*
X126434Y-77679D01*
X126434Y-77876D01*
X126462Y-77989D01*
X126518Y-78045D01*
X126574Y-78073D01*
X126687Y-78073D01*
X126743Y-78045D01*
X126799Y-77989D01*
X126827Y-77876D01*
X126827Y-77679D01*
X126799Y-77567D01*
X126743Y-77511D01*
X126687Y-77483D01*
X126181Y-77679D02*
X126181Y-78270D01*
X126181Y-77708D02*
X126124Y-77679D01*
X126012Y-77679D01*
X125956Y-77708D01*
X125928Y-77736D01*
X125899Y-77792D01*
X125899Y-77961D01*
X125928Y-78017D01*
X125956Y-78045D01*
X126012Y-78073D01*
X126124Y-78073D01*
X126181Y-78045D01*
X125421Y-78045D02*
X125478Y-78073D01*
X125590Y-78073D01*
X125646Y-78045D01*
X125674Y-77989D01*
X125674Y-77764D01*
X125646Y-77708D01*
X125590Y-77679D01*
X125478Y-77679D01*
X125421Y-77708D01*
X125393Y-77764D01*
X125393Y-77820D01*
X125674Y-77876D01*
X125140Y-78073D02*
X125140Y-77679D01*
X125140Y-77792D02*
X125112Y-77736D01*
X125084Y-77708D01*
X125028Y-77679D01*
X124971Y-77679D01*
X124521Y-78073D02*
X124521Y-77764D01*
X124550Y-77708D01*
X124606Y-77679D01*
X124718Y-77679D01*
X124775Y-77708D01*
X124521Y-78045D02*
X124578Y-78073D01*
X124718Y-78073D01*
X124775Y-78045D01*
X124803Y-77989D01*
X124803Y-77933D01*
X124775Y-77876D01*
X124718Y-77848D01*
X124578Y-77848D01*
X124521Y-77820D01*
X124325Y-77679D02*
X124100Y-77679D01*
X124240Y-77483D02*
X124240Y-77989D01*
X124212Y-78045D01*
X124156Y-78073D01*
X124100Y-78073D01*
X123903Y-78073D02*
X123903Y-77679D01*
X123903Y-77483D02*
X123931Y-77511D01*
X123903Y-77539D01*
X123875Y-77511D01*
X123903Y-77483D01*
X123903Y-77539D01*
X123622Y-77679D02*
X123622Y-78073D01*
X123622Y-77736D02*
X123593Y-77708D01*
X123537Y-77679D01*
X123453Y-77679D01*
X123397Y-77708D01*
X123368Y-77764D01*
X123368Y-78073D01*
X122834Y-77679D02*
X122834Y-78158D01*
X122862Y-78214D01*
X122890Y-78242D01*
X122947Y-78270D01*
X123031Y-78270D01*
X123087Y-78242D01*
X122834Y-78045D02*
X122890Y-78073D01*
X123003Y-78073D01*
X123059Y-78045D01*
X123087Y-78017D01*
X123115Y-77961D01*
X123115Y-77792D01*
X123087Y-77736D01*
X123059Y-77708D01*
X123003Y-77679D01*
X122890Y-77679D01*
X122834Y-77708D01*
X122187Y-77483D02*
X121850Y-77483D01*
X122019Y-78073D02*
X122019Y-77483D01*
X121428Y-78045D02*
X121484Y-78073D01*
X121597Y-78073D01*
X121653Y-78045D01*
X121681Y-77989D01*
X121681Y-77764D01*
X121653Y-77708D01*
X121597Y-77679D01*
X121484Y-77679D01*
X121428Y-77708D01*
X121400Y-77764D01*
X121400Y-77820D01*
X121681Y-77876D01*
X121147Y-78073D02*
X121147Y-77679D01*
X121147Y-77736D02*
X121119Y-77708D01*
X121062Y-77679D01*
X120978Y-77679D01*
X120922Y-77708D01*
X120894Y-77764D01*
X120894Y-78073D01*
X120894Y-77764D02*
X120866Y-77708D01*
X120809Y-77679D01*
X120725Y-77679D01*
X120669Y-77708D01*
X120641Y-77764D01*
X120641Y-78073D01*
X120359Y-77679D02*
X120359Y-78270D01*
X120359Y-77708D02*
X120303Y-77679D01*
X120191Y-77679D01*
X120134Y-77708D01*
X120106Y-77736D01*
X120078Y-77792D01*
X120078Y-77961D01*
X120106Y-78017D01*
X120134Y-78045D01*
X120191Y-78073D01*
X120303Y-78073D01*
X120359Y-78045D01*
X119825Y-78017D02*
X119797Y-78045D01*
X119825Y-78073D01*
X119853Y-78045D01*
X119825Y-78017D01*
X119825Y-78073D01*
M02*
